<?xml version="1.0" standalone="no"?>
<!DOCTYPE svg PUBLIC "-//W3C//DTD SVG 20010904//EN"
 "http://www.w3.org/TR/2001/REC-SVG-20010904/DTD/svg10.dtd">
<svg version="1.0" xmlns="http://www.w3.org/2000/svg"
 width="300.000000pt" height="300.000000pt" viewBox="0 0 300.000000 300.000000"
 preserveAspectRatio="xMidYMid meet">
<metadata>
Created by potrace 1.10, written by Peter Selinger 2001-2011
</metadata>
<g transform="translate(0.000000,300.000000) scale(0.100000,-0.100000)"
fill="#000000" stroke="none">
<path fill="#00825d" d="M352 2988 c-21 -21 -13 -39 31 -78 26 -23 57 -67 81 -114 l38 -77
-13 -67 c-18 -87 -18 -346 -1 -437 20 -100 48 -195 95 -314 l41 -103 -57 -172
c-68 -207 -68 -207 -68 -337 l-1 -104 -60 -62 c-41 -41 -59 -67 -55 -77 10
-27 30 -18 82 34 l49 50 19 -61 18 -60 -26 -21 c-38 -30 -125 -157 -118 -174
10 -27 32 -14 76 49 44 62 84 104 90 96 2 -2 18 -25 36 -51 l31 -47 -31 -32
c-77 -79 -157 -245 -131 -271 17 -17 32 2 65 82 27 64 108 180 127 180 14 0
124 -170 149 -232 30 -75 62 -87 91 -32 7 13 16 24 19 24 3 0 21 -25 39 -56
19 -30 72 -103 119 -162 107 -133 143 -206 143 -284 0 -48 3 -59 21 -68 17
-10 28 -7 62 16 48 32 140 125 165 166 20 35 24 35 44 0 25 -41 117 -134 165
-166 34 -23 45 -26 62 -16 18 9 21 20 21 68 0 81 30 138 156 300 59 75 114
152 122 169 19 39 25 41 42 9 29 -55 61 -43 91 32 25 62 135 232 149 232 19 0
100 -116 127 -180 33 -80 48 -99 65 -82 26 26 -54 192 -131 271 l-31 32 31 47
c18 26 34 49 36 51 6 8 46 -34 90 -96 44 -63 66 -76 76 -49 7 17 -80 144 -118
174 l-26 21 18 60 19 61 49 -50 c52 -52 72 -61 82 -34 4 11 -15 36 -57 79 -62
62 -63 64 -58 108 11 99 -9 214 -68 392 l-58 173 41 103 c47 119 75 214 95
314 17 91 17 350 -1 437 l-13 67 38 77 c24 47 55 91 81 114 46 40 52 60 27 81
-13 11 -21 10 -50 -6 -43 -23 -78 -68 -129 -167 l-40 -77 -259 -156 -259 -156
-86 18 c-124 26 -518 26 -642 0 l-86 -18 -259 156 -259 156 -40 77 c-50 96
-81 138 -121 163 -37 22 -46 23 -62 7z m93 -80 c20 -24 53 -76 73 -117 l37
-74 255 -155 c140 -85 269 -158 285 -163 l30 -7 -27 -1 c-17 -1 -73 27 -153
75 -116 70 -128 75 -143 61 -22 -22 -12 -39 107 -187 122 -153 131 -168 109
-184 -111 -78 -152 -113 -212 -182 -111 -126 -125 -152 -194 -352 -56 -163
-64 -199 -69 -283 -5 -78 -3 -101 10 -119 12 -17 13 -27 5 -40 -13 -20 18
-129 39 -137 7 -3 13 -15 13 -27 0 -29 58 -127 78 -133 10 -2 25 -21 34 -41
17 -36 86 -140 129 -195 19 -25 23 -27 37 -14 8 9 20 37 27 64 7 26 15 41 18
33 32 -107 47 -143 80 -195 34 -52 139 -190 157 -205 20 -17 86 -132 95 -165
27 -95 42 -97 118 -15 55 59 107 151 107 189 0 12 5 21 10 21 6 0 10 -9 10
-21 0 -60 136 -249 179 -249 20 0 33 24 50 88 7 26 42 82 89 143 42 55 100
133 129 172 52 72 103 179 103 217 0 11 5 20 10 20 6 0 10 -10 10 -22 0 -13 9
-38 21 -57 19 -32 21 -33 39 -16 11 10 32 39 47 64 14 25 44 69 65 97 21 28
38 57 38 65 0 8 10 19 22 24 12 6 34 35 50 65 75 149 100 221 79 234 -7 5 -6
15 6 32 13 20 15 42 10 122 -5 83 -14 122 -66 275 -45 133 -71 195 -106 246
-56 85 -180 212 -258 265 -31 22 -57 44 -57 49 0 12 52 82 158 215 45 57 82
109 82 116 0 8 -7 19 -15 26 -12 10 -37 -2 -140 -64 -80 -48 -136 -76 -153
-75 l-27 1 30 7 c17 5 145 78 285 163 l255 156 41 81 c40 79 89 142 129 163
11 6 -2 -13 -29 -43 -27 -30 -65 -87 -84 -127 l-34 -72 13 -68 c8 -38 14 -132
14 -217 0 -203 -20 -303 -103 -519 l-46 -118 57 -172 c32 -94 60 -193 62 -221
11 -108 12 -264 2 -274 -12 -12 -46 -109 -47 -133 0 -9 -4 -18 -8 -20 -12 -5
-72 -95 -72 -108 0 -6 -15 -24 -34 -41 -41 -35 -97 -118 -139 -203 -17 -34
-32 -63 -34 -65 -2 -3 -16 8 -33 24 -36 34 -43 30 -104 -64 -24 -36 -77 -109
-119 -161 -99 -123 -130 -186 -135 -267 -3 -35 -7 -63 -10 -63 -17 0 -120 92
-167 151 -31 38 -59 69 -63 69 -13 0 -27 -15 -71 -73 -38 -50 -147 -147 -165
-147 -3 0 -6 22 -6 49 0 89 -28 144 -166 316 -39 50 -87 115 -107 146 -19 31
-41 60 -47 64 -7 4 -24 -5 -41 -21 -16 -15 -31 -26 -33 -23 -2 2 -18 33 -36
69 -39 78 -111 181 -145 208 -14 11 -25 25 -25 30 0 15 -61 105 -77 115 -7 4
-13 17 -13 29 0 29 -21 100 -35 118 -9 11 -10 57 -5 170 7 155 7 155 65 328
l59 173 -32 77 c-95 232 -117 336 -116 557 0 100 5 194 13 227 12 57 12 59
-23 132 -19 40 -57 97 -83 126 -27 30 -39 48 -26 42 12 -7 38 -31 58 -54z
m407 -417 c53 -35 107 -69 176 -110 l53 -31 67 15 c206 46 498 46 704 0 l67
-15 53 31 c69 41 123 75 176 110 23 16 45 29 48 29 3 0 -26 -37 -63 -82 -208
-252 -223 -282 -160 -314 85 -44 218 -173 296 -287 20 -30 57 -118 93 -225 53
-158 60 -188 65 -281 6 -100 5 -104 -13 -96 -59 24 -105 37 -151 42 l-51 6 0
41 c1 50 -62 157 -123 209 -40 35 -121 67 -168 67 -45 0 -116 -29 -158 -65
-51 -44 -110 -150 -93 -170 14 -17 37 -9 45 15 5 15 11 16 47 8 55 -12 132 5
177 39 20 15 38 30 41 33 3 4 15 19 28 35 l23 28 35 -34 c19 -19 52 -60 71
-93 30 -49 34 -63 27 -85 -8 -21 -18 -27 -58 -33 -129 -18 -343 -122 -322
-156 11 -18 33 -14 76 13 36 23 200 95 216 95 4 0 -17 -26 -47 -58 -42 -45
-66 -61 -109 -74 -114 -36 -155 -63 -127 -86 8 -7 30 -3 67 13 74 32 85 32 63
-2 -23 -37 -28 -40 -83 -47 -50 -7 -69 -26 -45 -46 10 -8 24 -8 49 -1 42 11
44 5 17 -54 -36 -79 -95 -115 -185 -115 -40 0 -62 6 -94 27 -23 15 -42 33 -42
40 0 7 29 54 65 105 36 51 65 101 65 110 0 32 -65 52 -170 52 -105 0 -170 -20
-170 -52 0 -9 29 -59 65 -110 36 -51 65 -98 65 -105 0 -7 -19 -25 -42 -40 -32
-21 -54 -27 -94 -27 -90 0 -149 36 -185 115 -27 59 -25 65 17 54 25 -7 39 -7
49 1 24 20 5 39 -45 46 -55 7 -60 10 -83 46 -22 35 -11 35 63 3 55 -23 85 -20
74 10 -6 15 -80 49 -144 65 -35 9 -56 24 -98 71 -29 32 -51 59 -47 59 15 0
180 -73 215 -95 43 -27 65 -31 76 -13 21 34 -193 138 -322 156 -40 6 -50 12
-58 33 -7 22 -3 36 27 85 19 33 52 74 71 93 l35 34 23 -28 c13 -16 25 -31 28
-35 3 -3 21 -18 41 -33 45 -34 122 -51 177 -39 36 8 42 7 47 -8 8 -24 31 -32
45 -15 17 20 -42 126 -93 170 -42 36 -113 65 -158 65 -47 0 -128 -32 -168 -67
-61 -52 -124 -159 -123 -209 l0 -41 -51 -6 c-46 -5 -92 -18 -151 -42 -18 -8
-19 -4 -13 96 5 93 12 123 65 281 36 107 73 195 93 225 78 114 211 243 297
287 62 32 47 62 -161 314 -37 45 -66 82 -63 82 3 0 25 -13 48 -29z m435 -67
c-3 -3 -12 -4 -19 -1 -8 3 -5 6 6 6 11 1 17 -2 13 -5z m450 0 c-3 -3 -12 -4
-19 -1 -8 3 -5 6 6 6 11 1 17 -2 13 -5z m-507 -8 c0 -2 -11 -6 -25 -8 -13 -3
-22 -1 -19 3 5 9 44 13 44 5z m573 -3 c-7 -2 -19 -2 -25 0 -7 3 -2 5 12 5 14
0 19 -2 13 -5z m-673 -898 c6 -36 37 -46 48 -16 7 21 9 20 42 -14 29 -30 32
-37 20 -45 -20 -13 -56 -12 -103 1 -41 11 -122 83 -111 100 3 5 27 9 52 7 43
-3 47 -5 52 -33z m845 25 c10 -16 -71 -88 -112 -99 -47 -13 -83 -14 -103 -1
-12 8 -9 15 20 45 33 34 35 35 42 14 10 -26 42 -22 46 6 7 41 11 45 56 45 25
0 47 -4 51 -10z m-1065 -307 c0 -17 -15 -16 -30 1 -9 12 -8 15 9 13 12 -1 21
-7 21 -14z m1207 0 c-9 -9 -20 -13 -24 -9 -4 4 -1 11 7 16 25 16 35 11 17 -7z
m-1225 -50 l57 -58 -87 -1 c-81 -2 -132 -14 -233 -58 -17 -8 -34 20 -44 77 -6
33 -6 34 45 56 57 24 116 38 170 40 31 1 44 -7 92 -56z m1377 47 c28 -5 74
-19 102 -31 49 -22 50 -23 44 -56 -10 -57 -27 -85 -44 -77 -84 38 -163 57
-238 58 l-82 1 57 58 c61 62 70 64 161 47z m-234 -109 c3 -5 1 -12 -5 -16 -5
-3 -10 1 -10 9 0 18 6 21 15 7z m-1050 -11 c3 -5 1 -10 -4 -10 -6 0 -11 5 -11
10 0 6 2 10 4 10 3 0 8 -4 11 -10z m-19 -36 c21 -4 36 -18 52 -45 l23 -39 -46
0 c-64 0 -181 -28 -238 -56 -27 -13 -52 -24 -57 -24 -5 0 -22 23 -39 50 l-31
51 54 25 c83 38 203 54 282 38z m84 -16 c0 -6 -6 -5 -15 2 -8 7 -15 14 -15 16
0 2 7 1 15 -2 8 -4 15 -11 15 -16z m912 0 c-7 -7 -12 -8 -12 -2 0 14 12 26 19
19 2 -3 -1 -11 -7 -17z m248 12 c30 -6 78 -21 107 -35 l53 -24 -31 -51 c-17
-27 -34 -50 -39 -50 -5 0 -30 11 -57 24 -57 28 -174 56 -238 56 l-46 0 23 40
c13 21 32 41 43 43 41 8 134 7 185 -3z m-631 -26 c17 -4 31 -9 31 -13 0 -11
-101 -146 -110 -146 -9 0 -110 135 -110 147 0 15 131 23 189 12z m-474 -102
c-3 -3 -16 5 -28 17 l-22 23 28 -17 c15 -10 25 -20 22 -23z m820 18 c-10 -11
-21 -17 -24 -14 -3 3 3 12 13 20 28 20 32 17 11 -6z m-842 -73 c22 -69 74
-129 134 -155 33 -14 58 -34 80 -65 17 -25 53 -58 80 -73 41 -25 59 -29 123
-29 64 0 82 4 123 28 27 16 64 50 83 77 24 34 44 51 66 55 50 11 123 92 144
160 l18 57 91 -5 c84 -4 211 -39 236 -64 4 -4 -13 -35 -37 -68 -25 -33 -57
-82 -71 -110 -22 -43 -27 -47 -34 -30 -4 11 -8 34 -8 51 -1 35 -21 57 -48 52
-12 -2 -23 -23 -36 -72 -22 -86 -59 -148 -177 -296 -98 -124 -150 -215 -150
-264 l-1 -31 -61 64 c-63 67 -97 127 -98 173 0 26 -22 58 -40 58 -18 0 -40
-32 -40 -58 -1 -46 -35 -106 -98 -173 l-61 -64 -1 31 c0 49 -52 140 -150 264
-118 148 -155 210 -177 296 -13 49 -24 70 -36 72 -27 5 -47 -17 -48 -52 0 -17
-4 -40 -8 -51 -7 -17 -11 -14 -31 25 -21 42 -33 61 -96 144 l-25 35 29 15 c56
29 167 55 238 55 l70 1 17 -53z m427 -52 c0 -8 -4 -15 -10 -15 -5 0 -10 7 -10
15 0 8 5 15 10 15 6 0 10 -7 10 -15z m14 -64 c22 -24 98 -61 126 -61 27 0 25
-11 -7 -43 -79 -75 -207 -75 -285 0 -16 15 -28 30 -28 34 0 3 18 9 39 13 22 3
58 21 83 40 52 41 50 41 72 17z"/>
<path fill="#9572a3" d="M539 2658 c-7 -13 -9 -45 -6 -84 4 -37 2 -66 -3 -69 -6 -4 -10 -40
-10 -81 0 -60 4 -78 19 -93 17 -17 18 -21 5 -32 -28 -23 -5 -170 35 -213 13
-14 18 -29 14 -48 -6 -33 30 -132 60 -165 20 -22 21 -22 40 -5 11 9 32 36 47
60 15 23 39 51 53 62 14 11 29 29 32 40 4 11 12 20 20 20 7 0 29 18 49 40 20
22 43 40 51 40 16 0 55 38 55 54 0 35 -401 496 -430 496 -11 0 -25 -10 -31
-22z m207 -198 c137 -156 224 -264 224 -278 0 -5 -8 -13 -17 -17 -19 -7 -15
-11 -285 277 l-118 125 7 48 6 47 37 -38 c20 -22 85 -95 146 -164z m63 -240
l88 -95 -28 -23 -28 -23 -98 94 c-54 51 -121 114 -149 140 l-51 47 -1 73 -2
72 90 -95 c50 -52 130 -138 179 -190z m-20 -196 l-21 -22 -93 56 -92 57 -13
65 c-6 36 -15 76 -18 90 -4 18 28 -7 126 -100 l131 -125 -20 -21z m-79 -45
l23 -15 -31 -43 c-31 -43 -32 -43 -41 -20 -5 13 -18 48 -30 77 -12 29 -21 55
-21 58 0 5 53 -25 100 -57z"/>
<path fill="#9572a3" d="M2299 2553 c-129 -145 -244 -282 -278 -331 -21 -30 -22 -37 -10 -58
7 -14 24 -27 37 -31 14 -3 40 -23 59 -44 20 -22 41 -39 48 -39 8 0 16 -9 20
-20 3 -11 18 -29 32 -40 14 -11 38 -39 53 -62 15 -24 36 -51 47 -60 19 -17 20
-17 40 5 30 33 66 132 60 165 -4 19 1 34 15 49 35 38 61 186 37 210 -8 8 -7
17 5 34 22 31 23 161 1 179 -11 9 -12 17 -5 30 13 24 13 96 0 121 -21 38 -47
20 -161 -108z m34 -110 c-271 -289 -267 -285 -285 -278 -10 4 -18 12 -18 17 0
18 206 263 370 441 l35 39 8 -47 8 -47 -118 -125z m126 -13 l-2 -70 -51 -47
c-28 -26 -95 -89 -149 -140 l-98 -94 -28 24 -28 23 175 187 c96 103 177 187
179 187 2 0 3 -31 2 -70z m-25 -231 l-17 -84 -91 -57 -91 -57 -22 21 -23 21
128 123 c70 67 128 121 130 119 1 -1 -5 -40 -14 -86z m-65 -220 c-11 -30 -25
-65 -30 -78 -9 -23 -10 -23 -40 19 -17 23 -27 46 -22 50 15 14 107 69 111 66
1 -2 -7 -28 -19 -57z"/>
<path fill="#00825d" d="M1375 2300 c-74 -29 -149 -99 -184 -173 -36 -77 -45 -136 -31 -207
48 -251 322 -369 534 -229 96 64 150 171 150 294 -1 135 -94 267 -222 315 -69
26 -179 26 -247 0z m242 -51 c94 -40 170 -142 180 -244 12 -112 -54 -233 -158
-290 -48 -27 -63 -30 -139 -30 -76 0 -91 3 -139 30 -68 38 -126 109 -147 183
-69 235 175 448 403 351z"/>
<path fill="#00825d" d="M1453 2239 c-105 -19 -180 -90 -209 -195 -15 -55 -15 -72 -5 -119 28
-124 138 -215 261 -215 123 0 233 91 261 215 10 47 10 64 -6 120 -36 136 -166
219 -302 194z m67 -43 c0 -7 -9 -16 -20 -19 -15 -4 -20 0 -20 14 0 12 7 19 20
19 11 0 20 -6 20 -14z m-72 -28 c-8 -13 -46 -78 -83 -146 -72 -128 -83 -135
-84 -52 -2 83 49 168 122 204 48 23 63 21 45 -6z m148 6 c73 -35 125 -120 123
-204 -1 -83 -12 -76 -84 52 -37 68 -75 133 -83 146 -18 27 -5 29 44 6z m-14
-156 l77 -133 -80 -3 c-43 -2 -115 -2 -158 0 l-80 3 77 133 c42 72 79 132 82
132 3 0 40 -60 82 -132z m-257 -168 c-9 -15 -25 -12 -32 6 -8 21 19 38 30 18
4 -8 5 -19 2 -24z m385 15 c0 -19 -20 -29 -31 -18 -14 14 0 43 17 36 8 -3 14
-11 14 -18z m-57 -47 c-29 -32 -97 -58 -153 -58 -56 0 -124 26 -153 58 -15 16
-6 17 153 17 159 0 168 -1 153 -17z"/>
<path fill="#9572a3" d="M1470 2006 c-6 -8 -10 -25 -8 -38 2 -19 9 -23 38 -23 29 0 36 4 38
23 4 28 -14 52 -38 52 -10 0 -23 -7 -30 -14z"/>
<path fill="#9572a3" d="M1040 1965 c-10 -11 -10 -19 -2 -27 15 -15 44 -2 40 19 -4 23 -22 27
-38 8z"/>
<path fill="#9572a3" d="M1924 1965 c-7 -18 3 -35 21 -35 21 0 28 19 15 35 -16 19 -29 19 -36
0z"/>
<path fill="#9572a3" d="M927 1876 c-7 -17 18 -40 33 -31 5 3 10 15 10 26 0 23 -35 27 -43 5z"/>
<path fill="#9572a3" d="M2030 1871 c0 -26 17 -36 35 -21 18 15 8 40 -16 40 -12 0 -19 -7 -19
-19z"/>
<path fill="#9572a3" d="M834 1775 c-4 -9 -2 -21 4 -27 15 -15 44 -1 40 19 -4 23 -36 29 -44
8z"/>
<path fill="#9572a3" d="M2124 1775 c-4 -9 -2 -21 4 -27 15 -15 44 -1 40 19 -4 23 -36 29 -44
8z"/>
<path fill="#00825d" d="M1034 1747 c-9 -25 2 -34 51 -40 68 -10 136 -49 198 -116 31 -34 63
-61 71 -61 59 0 -59 142 -157 190 -77 37 -154 50 -163 27z"/>
<path fill="#00825d" d="M1863 1746 c-67 -22 -127 -61 -182 -121 -51 -56 -65 -95 -35 -95 8 0
40 27 71 61 64 68 113 98 193 114 44 9 55 16 55 31 0 24 -43 28 -102 10z"/>
<path fill="#9572a3" d="M760 1650 c0 -16 5 -21 23 -18 12 2 22 10 22 18 0 8 -10 16 -22 18
-18 3 -23 -2 -23 -18z"/>
<path fill="#9572a3" d="M2195 1660 c-9 -15 4 -30 26 -30 12 0 19 7 19 20 0 21 -33 29 -45 10z"/>
<path fill="#9572a3" d="M707 1534 c-11 -11 5 -34 24 -34 12 0 19 7 19 20 0 19 -28 28 -43 14z"/>
<path fill="#9572a3" d="M2250 1520 c0 -13 7 -20 20 -20 13 0 20 7 20 20 0 13 -7 20 -20 20
-13 0 -20 -7 -20 -20z"/>
<path fill="#9572a3" d="M1476 1515 c-6 -18 16 -30 39 -21 20 7 8 36 -15 36 -10 0 -21 -7 -24
-15z"/>
<path fill="#7280a3" d="M975 1420 c-4 -7 -3 -16 3 -22 14 -14 45 -2 40 15 -6 16 -34 21 -43
7z"/>
<path fill="#7280a3" d="M1985 1420 c-4 -7 -3 -16 3 -22 14 -14 45 -2 40 15 -6 16 -34 21 -43
7z"/>
<path fill="#9572a3" d="M677 1397 c-3 -8 -2 -20 3 -27 11 -18 42 -4 38 17 -4 22 -34 29 -41
10z"/>
<path fill="#9572a3" d="M2283 1394 c-3 -8 -1 -20 5 -26 15 -15 43 8 35 28 -7 19 -32 18 -40
-2z"/>
<path fill="#9572a3" d="M1481 1376 c-17 -20 13 -43 34 -26 12 10 13 16 4 26 -6 8 -15 14 -19
14 -4 0 -13 -6 -19 -14z"/>
<path fill="#7280a3" d="M1030 1365 c-11 -13 -11 -19 3 -32 21 -21 49 -9 45 19 -4 28 -30 35
-48 13z"/>
<path fill="#7280a3" d="M1924 1365 c-8 -21 2 -45 19 -45 8 0 20 7 27 15 10 12 10 18 0 30 -7
8 -19 15 -27 15 -7 0 -16 -7 -19 -15z"/>
<path fill="#7280a3" d="M1101 1321 c-13 -24 8 -55 34 -50 28 6 42 34 26 53 -18 22 -48 20
-60 -3z"/>
<path fill="#7280a3" d="M1839 1324 c-9 -11 -10 -20 -2 -32 15 -24 44 -27 59 -7 28 38 -27 75
-57 39z"/>
<path fill="#9572a3" d="M1483 1239 c-15 -15 -5 -39 17 -39 22 0 32 24 17 39 -6 6 -14 11 -17
11 -3 0 -11 -5 -17 -11z"/>
</g>
</svg>
