<svg id="svg" version="1.1" xmlns="http://www.w3.org/2000/svg" xmlns:xlink="http://www.w3.org/1999/xlink" width="400" height="400" viewBox="0, 0, 400,400"><g id="svgg"><path id="path0" d="M348.600 0.971 C 347.940 1.201,347.310 1.502,347.200 1.639 C 347.090 1.776,346.371 2.211,345.602 2.605 C 343.629 3.617,339.442 7.731,337.262 10.800 C 336.246 12.230,335.277 13.460,335.107 13.533 C 334.938 13.607,334.800 13.849,334.800 14.072 C 334.800 14.294,334.461 14.954,334.047 15.538 C 332.314 17.981,326.000 30.172,326.000 31.074 C 326.000 31.363,325.820 31.600,325.600 31.600 C 325.380 31.600,325.194 32.005,325.187 32.500 C 325.172 33.560,324.561 34.380,323.192 35.178 C 322.646 35.497,320.618 36.712,318.684 37.878 C 316.751 39.045,314.996 40.000,314.784 40.000 C 314.573 40.000,314.400 40.159,314.400 40.353 C 314.400 40.548,314.085 40.807,313.700 40.929 C 313.015 41.146,310.796 42.404,310.400 42.800 C 310.004 43.196,307.785 44.454,307.100 44.671 C 306.715 44.793,306.400 45.052,306.400 45.247 C 306.400 45.441,306.130 45.600,305.800 45.600 C 305.470 45.600,305.200 45.780,305.200 46.000 C 305.200 46.220,304.945 46.400,304.633 46.400 C 304.322 46.400,304.007 46.535,303.933 46.700 C 303.766 47.076,301.636 48.375,300.700 48.671 C 300.315 48.793,300.000 49.052,300.000 49.247 C 300.000 49.441,299.807 49.600,299.572 49.600 C 299.337 49.600,298.359 50.140,297.400 50.800 C 296.441 51.460,295.571 52.000,295.468 52.000 C 295.365 52.000,294.137 52.721,292.740 53.602 C 291.343 54.484,289.930 55.324,289.600 55.470 C 289.270 55.615,288.248 56.244,287.328 56.867 C 286.408 57.490,285.541 58.000,285.400 58.000 C 285.259 58.000,284.359 58.540,283.400 59.200 C 282.441 59.860,281.463 60.400,281.228 60.400 C 280.993 60.400,280.800 60.559,280.800 60.753 C 280.800 60.948,280.485 61.207,280.100 61.329 C 279.415 61.546,277.196 62.804,276.800 63.200 C 276.690 63.310,276.240 63.597,275.800 63.838 C 273.669 65.003,272.983 65.422,272.791 65.677 C 272.676 65.829,272.136 66.191,271.591 66.482 C 269.092 67.816,260.586 73.028,260.467 73.298 C 260.393 73.464,260.071 73.600,259.750 73.600 C 259.429 73.600,258.780 73.960,258.308 74.400 C 257.836 74.840,257.213 75.200,256.925 75.200 C 256.636 75.200,256.400 75.380,256.400 75.600 C 256.400 75.820,256.040 76.000,255.600 76.000 C 255.160 76.000,254.800 76.180,254.800 76.400 C 254.800 76.620,254.451 76.800,254.024 76.800 C 253.597 76.800,253.136 76.620,253.000 76.400 C 252.864 76.180,251.953 76.000,250.976 76.000 C 249.999 76.000,249.200 75.820,249.200 75.600 C 249.200 75.380,248.401 75.200,247.424 75.200 C 246.447 75.200,245.536 75.020,245.400 74.800 C 245.264 74.580,244.389 74.400,243.456 74.400 C 242.523 74.400,241.589 74.235,241.380 74.034 C 241.171 73.832,239.920 73.571,238.600 73.453 C 237.280 73.335,234.850 73.072,233.200 72.868 C 230.080 72.482,224.528 71.914,217.000 71.209 C 214.580 70.983,206.930 70.798,200.000 70.798 C 193.070 70.798,185.420 70.983,183.000 71.209 C 175.472 71.914,169.920 72.482,166.800 72.868 C 165.150 73.072,162.720 73.335,161.400 73.453 C 160.080 73.571,158.829 73.832,158.620 74.034 C 158.411 74.235,157.477 74.400,156.544 74.400 C 155.611 74.400,154.736 74.580,154.600 74.800 C 154.464 75.020,153.553 75.200,152.576 75.200 C 151.599 75.200,150.800 75.380,150.800 75.600 C 150.800 75.820,150.001 76.000,149.024 76.000 C 148.047 76.000,147.136 76.180,147.000 76.400 C 146.864 76.620,146.403 76.800,145.976 76.800 C 145.549 76.800,145.200 76.620,145.200 76.400 C 145.200 76.180,144.840 76.000,144.400 76.000 C 143.960 76.000,143.600 75.842,143.600 75.649 C 143.600 75.455,143.060 75.073,142.400 74.800 C 141.740 74.527,141.200 74.145,141.200 73.951 C 141.200 73.758,141.013 73.600,140.784 73.600 C 140.396 73.600,127.639 66.107,127.200 65.621 C 127.090 65.500,126.595 65.175,126.100 64.900 C 125.605 64.625,124.795 64.175,124.300 63.900 C 123.805 63.625,123.310 63.310,123.200 63.200 C 122.804 62.804,120.585 61.546,119.900 61.329 C 119.515 61.207,119.200 60.948,119.200 60.753 C 119.200 60.559,119.007 60.400,118.772 60.400 C 118.537 60.400,117.559 59.860,116.600 59.200 C 115.641 58.540,114.663 58.000,114.428 58.000 C 114.193 58.000,114.000 57.841,114.000 57.647 C 114.000 57.452,113.685 57.190,113.300 57.064 C 112.915 56.937,111.942 56.421,111.137 55.917 C 108.709 54.395,105.026 52.211,104.600 52.041 C 104.380 51.953,103.448 51.368,102.528 50.741 C 101.608 50.113,100.663 49.600,100.428 49.600 C 100.193 49.600,100.000 49.441,100.000 49.247 C 100.000 49.052,99.685 48.793,99.300 48.671 C 98.391 48.383,96.447 47.188,95.442 46.300 C 95.006 45.915,94.413 45.600,94.125 45.600 C 93.836 45.600,93.600 45.441,93.600 45.247 C 93.600 45.052,93.285 44.793,92.900 44.671 C 92.215 44.454,89.996 43.196,89.600 42.800 C 89.204 42.404,86.985 41.146,86.300 40.929 C 85.915 40.807,85.600 40.548,85.600 40.353 C 85.600 40.159,85.420 40.000,85.201 40.000 C 83.428 40.000,74.800 33.709,74.800 32.417 C 74.800 31.968,74.620 31.600,74.400 31.600 C 74.180 31.600,74.001 31.375,74.002 31.100 C 74.005 30.462,68.316 19.045,67.907 18.867 C 67.738 18.793,67.600 18.556,67.600 18.339 C 67.600 18.122,67.105 17.189,66.500 16.265 C 65.895 15.342,65.220 14.284,65.000 13.914 C 61.162 7.459,53.943 1.081,50.415 1.027 C 47.059 0.977,44.673 3.993,46.100 6.483 C 46.683 7.501,48.253 9.200,48.610 9.200 C 49.892 9.200,54.354 13.722,57.507 18.217 C 58.295 19.340,59.273 21.073,59.471 21.700 C 59.593 22.085,59.852 22.400,60.047 22.400 C 60.241 22.400,60.400 22.760,60.400 23.200 C 60.400 23.640,60.535 24.001,60.700 24.003 C 60.865 24.005,61.191 24.410,61.425 24.903 C 61.658 25.396,62.402 26.880,63.078 28.200 C 63.754 29.520,64.670 31.410,65.113 32.400 C 67.608 37.974,67.621 38.014,67.208 38.786 C 66.983 39.205,66.800 40.269,66.800 41.150 C 66.800 42.032,66.620 42.864,66.400 43.000 C 66.180 43.136,66.000 44.101,66.000 45.144 C 66.000 46.187,65.836 47.211,65.635 47.420 C 65.266 47.805,65.019 49.696,64.492 56.200 C 64.331 58.180,64.061 60.015,63.890 60.278 C 63.435 60.979,63.491 91.187,63.949 91.740 C 64.158 91.993,64.432 93.460,64.558 95.000 C 64.684 96.540,64.887 99.060,65.009 100.600 C 65.131 102.140,65.393 103.760,65.591 104.200 C 65.789 104.640,66.044 105.630,66.159 106.400 C 66.664 109.798,68.101 116.329,69.173 120.100 C 69.968 122.894,70.329 124.194,70.979 126.600 C 71.730 129.384,72.713 132.299,73.235 133.295 C 73.436 133.677,73.600 134.264,73.600 134.600 C 73.600 134.936,73.759 135.523,73.953 135.905 C 74.148 136.287,74.529 137.140,74.800 137.800 C 75.071 138.460,75.452 139.313,75.647 139.695 C 75.841 140.077,76.000 140.752,76.000 141.195 C 76.000 141.638,76.180 142.000,76.400 142.000 C 76.620 142.000,76.800 142.439,76.800 142.976 C 76.800 143.513,76.980 144.064,77.200 144.200 C 77.420 144.336,77.600 144.797,77.600 145.224 C 77.600 145.651,77.780 146.000,78.000 146.000 C 78.220 146.000,78.400 146.272,78.400 146.605 C 78.400 146.938,78.559 147.523,78.753 147.905 C 78.948 148.287,79.329 149.140,79.600 149.800 C 79.871 150.460,80.252 151.313,80.447 151.695 C 80.641 152.077,80.800 152.662,80.800 152.995 C 80.800 153.328,80.980 153.600,81.200 153.600 C 81.420 153.600,81.600 153.872,81.600 154.205 C 81.600 154.538,81.759 155.123,81.953 155.505 C 82.148 155.887,82.529 156.740,82.800 157.400 C 83.071 158.060,83.419 158.870,83.572 159.200 C 83.855 159.810,83.246 162.489,82.700 163.034 C 82.535 163.199,82.400 163.743,82.400 164.243 C 82.400 164.743,82.220 165.264,82.000 165.400 C 81.780 165.536,81.600 166.076,81.600 166.600 C 81.600 167.124,81.420 167.664,81.200 167.800 C 80.980 167.936,80.800 168.476,80.800 169.000 C 80.800 169.524,80.620 170.064,80.400 170.200 C 80.180 170.336,80.000 170.799,80.000 171.229 C 80.000 171.659,79.792 172.413,79.538 172.905 C 78.544 174.826,78.400 175.216,78.400 175.971 C 78.400 176.401,78.220 176.864,78.000 177.000 C 77.780 177.136,77.600 177.676,77.600 178.200 C 77.600 178.724,77.420 179.264,77.200 179.400 C 76.980 179.536,76.800 180.076,76.800 180.600 C 76.800 181.124,76.620 181.664,76.400 181.800 C 76.180 181.936,76.000 182.476,76.000 183.000 C 76.000 183.524,75.820 184.064,75.600 184.200 C 75.380 184.336,75.200 184.799,75.200 185.229 C 75.200 185.659,75.022 186.323,74.803 186.705 C 74.585 187.087,73.613 189.920,72.643 193.000 C 70.835 198.738,70.588 199.576,69.996 202.000 C 69.807 202.770,69.448 204.120,69.196 205.000 C 66.761 213.530,65.806 233.002,67.427 241.069 C 67.644 242.150,67.495 242.504,66.420 243.469 C 65.727 244.091,64.583 245.120,63.879 245.755 C 63.176 246.390,61.791 247.560,60.802 248.355 C 59.813 249.150,58.643 250.249,58.202 250.798 C 57.761 251.347,56.247 253.015,54.839 254.505 C 51.464 258.075,51.032 258.915,51.802 260.404 C 53.030 262.779,55.018 262.413,57.800 259.301 C 62.472 254.076,67.585 249.200,68.393 249.200 C 68.576 249.200,69.035 250.235,69.413 251.500 C 70.993 256.789,72.952 262.626,73.264 262.980 C 74.426 264.296,73.617 265.680,69.075 270.149 C 66.587 272.597,64.120 275.230,63.594 276.000 C 63.068 276.770,62.314 277.691,61.919 278.047 C 61.524 278.403,61.200 278.871,61.200 279.088 C 61.200 279.304,60.660 280.046,60.000 280.737 C 59.340 281.428,58.800 282.097,58.800 282.224 C 58.800 282.352,58.260 283.241,57.600 284.200 C 56.940 285.159,56.400 286.039,56.400 286.154 C 56.400 286.270,55.940 287.042,55.379 287.870 C 53.882 290.075,54.835 292.800,57.102 292.800 C 58.015 292.800,60.400 290.765,60.400 289.986 C 60.400 289.805,60.625 289.416,60.900 289.121 C 61.175 288.827,61.748 287.959,62.173 287.193 C 64.352 283.269,75.025 270.800,76.206 270.800 C 76.755 270.800,78.615 273.463,79.071 274.900 C 79.193 275.285,79.452 275.600,79.647 275.600 C 79.841 275.600,80.000 275.960,80.000 276.400 C 80.000 276.840,80.168 277.200,80.373 277.200 C 80.578 277.200,80.860 277.559,80.999 277.998 C 81.138 278.436,81.476 279.021,81.748 279.298 C 82.747 280.310,85.600 284.773,85.600 285.323 C 85.600 285.635,84.202 287.220,82.493 288.845 C 80.785 290.470,78.948 292.430,78.413 293.200 C 77.877 293.970,77.331 294.690,77.200 294.800 C 77.069 294.910,76.529 295.630,76.000 296.400 C 75.471 297.170,74.931 297.890,74.800 298.000 C 74.331 298.393,72.775 300.767,71.351 303.262 C 70.554 304.658,69.564 306.390,69.151 307.112 C 68.738 307.834,68.400 308.689,68.400 309.012 C 68.400 309.335,68.220 309.600,68.000 309.600 C 67.780 309.600,67.600 309.872,67.600 310.205 C 67.600 310.538,67.443 311.123,67.250 311.505 C 65.692 314.598,65.200 315.776,65.200 316.414 C 65.200 316.820,65.020 317.264,64.800 317.400 C 64.580 317.536,64.400 318.087,64.400 318.624 C 64.400 319.161,64.220 319.600,64.000 319.600 C 63.780 319.600,63.600 320.039,63.600 320.576 C 63.600 321.113,63.420 321.664,63.200 321.800 C 62.044 322.514,63.965 325.600,65.565 325.600 C 66.461 325.600,68.400 323.967,68.400 323.213 C 68.400 322.980,68.580 322.432,68.800 321.995 C 69.020 321.558,69.380 320.842,69.600 320.405 C 69.820 319.968,70.000 319.248,70.000 318.805 C 70.000 318.362,70.180 318.000,70.400 318.000 C 70.620 318.000,70.800 317.638,70.800 317.195 C 70.800 316.752,70.960 316.077,71.156 315.695 C 71.352 315.313,71.937 314.100,72.456 313.000 C 72.975 311.900,73.535 310.940,73.700 310.867 C 73.865 310.793,74.000 310.388,74.000 309.967 C 74.000 309.545,74.180 309.200,74.400 309.200 C 74.620 309.200,74.800 308.840,74.800 308.400 C 74.800 307.960,74.980 307.600,75.200 307.600 C 75.420 307.600,75.600 307.240,75.600 306.800 C 75.600 306.360,75.780 306.000,76.000 306.000 C 76.220 306.000,76.400 305.804,76.400 305.565 C 76.400 304.679,82.450 296.503,85.284 293.557 C 88.906 289.792,89.602 289.508,90.843 291.285 C 91.349 292.008,92.086 292.891,92.481 293.247 C 92.876 293.603,93.200 294.071,93.200 294.288 C 93.200 294.504,93.695 295.213,94.300 295.863 C 96.090 297.785,98.000 300.322,98.000 300.777 C 98.000 301.009,98.150 301.200,98.332 301.200 C 98.515 301.200,98.920 301.695,99.232 302.300 C 99.545 302.905,100.115 303.749,100.500 304.175 C 100.885 304.602,101.200 305.105,101.200 305.292 C 101.200 305.480,101.383 305.851,101.606 306.117 C 102.536 307.225,104.052 309.765,105.990 313.465 C 107.124 315.629,108.220 317.571,108.426 317.780 C 108.632 317.989,108.800 318.574,108.800 319.080 C 108.800 319.586,108.980 320.000,109.200 320.000 C 109.420 320.000,109.600 320.349,109.600 320.776 C 109.600 321.203,109.780 321.664,110.000 321.800 C 110.220 321.936,110.400 322.487,110.400 323.024 C 110.400 323.561,110.580 324.000,110.800 324.000 C 111.020 324.000,111.200 324.343,111.200 324.762 C 111.200 329.319,118.790 331.392,120.153 327.208 C 120.437 326.336,121.746 324.224,122.100 324.067 C 122.265 323.993,122.400 323.762,122.400 323.553 C 122.400 323.343,122.688 322.732,123.041 322.194 C 123.737 321.132,125.200 321.416,125.200 322.614 C 125.200 322.936,125.380 323.200,125.600 323.200 C 125.820 323.200,126.000 323.560,126.000 324.000 C 126.000 324.440,126.180 324.800,126.400 324.800 C 126.620 324.800,126.800 325.145,126.800 325.567 C 126.800 325.988,126.935 326.393,127.100 326.467 C 127.265 326.540,127.833 327.455,128.363 328.500 C 128.892 329.545,129.477 330.400,129.663 330.400 C 129.848 330.400,130.000 330.636,130.000 330.925 C 130.000 331.213,130.324 331.798,130.720 332.225 C 131.116 332.651,131.545 333.270,131.673 333.600 C 131.893 334.166,139.057 343.972,139.563 344.400 C 139.693 344.510,140.428 345.410,141.194 346.400 C 142.680 348.318,143.355 349.150,144.545 350.534 C 144.955 351.010,145.765 352.030,146.345 352.800 C 146.925 353.570,147.628 354.441,147.906 354.735 C 148.184 355.029,148.904 355.929,149.506 356.734 C 150.108 357.540,150.930 358.559,151.334 359.000 C 152.067 359.799,156.242 365.499,157.000 366.734 C 157.220 367.093,157.895 368.142,158.500 369.065 C 159.105 369.989,159.600 370.937,159.600 371.172 C 159.600 371.407,159.780 371.600,160.000 371.600 C 160.220 371.600,160.400 371.960,160.400 372.400 C 160.400 372.840,160.580 373.200,160.800 373.200 C 161.020 373.200,161.200 373.560,161.200 374.000 C 161.200 374.440,161.380 374.800,161.600 374.800 C 161.820 374.800,162.000 375.149,162.000 375.576 C 162.000 376.003,162.180 376.464,162.400 376.600 C 162.620 376.736,162.800 377.287,162.800 377.824 C 162.800 378.361,162.980 378.800,163.200 378.800 C 163.420 378.800,163.600 379.304,163.600 379.920 C 163.600 380.536,163.763 381.211,163.961 381.420 C 164.550 382.039,164.886 385.434,164.957 391.465 C 165.030 397.620,165.305 398.329,167.900 399.040 C 168.395 399.176,168.800 399.433,168.800 399.612 C 168.800 400.054,172.056 398.291,174.583 396.480 C 178.634 393.579,180.276 392.124,186.200 386.189 C 192.284 380.094,192.652 379.690,194.386 377.200 C 194.923 376.430,195.480 375.710,195.625 375.600 C 195.770 375.490,196.188 374.860,196.555 374.200 C 199.290 369.272,200.282 368.639,201.553 371.006 C 202.220 372.248,205.942 377.797,207.130 379.320 C 208.346 380.878,219.764 392.172,221.568 393.600 C 225.492 396.707,231.200 400.277,231.200 399.625 C 231.200 399.439,231.605 399.176,232.100 399.040 C 234.713 398.324,234.994 397.603,235.055 391.455 C 235.114 385.447,235.448 382.042,236.039 381.420 C 236.237 381.211,236.400 380.637,236.400 380.144 C 236.400 379.651,236.580 379.136,236.800 379.000 C 237.020 378.864,237.200 378.324,237.200 377.800 C 237.200 377.276,237.380 376.736,237.600 376.600 C 237.820 376.464,238.000 376.003,238.000 375.576 C 238.000 375.149,238.180 374.800,238.400 374.800 C 238.620 374.800,238.800 374.440,238.800 374.000 C 238.800 373.560,238.980 373.200,239.200 373.200 C 239.420 373.200,239.600 372.840,239.600 372.400 C 239.600 371.960,239.780 371.600,240.000 371.600 C 240.220 371.600,240.400 371.364,240.400 371.075 C 240.400 370.787,240.715 370.202,241.100 369.775 C 241.485 369.349,242.033 368.550,242.317 368.000 C 242.892 366.887,247.353 360.584,248.600 359.122 C 249.040 358.606,249.892 357.528,250.494 356.727 C 251.096 355.925,251.816 355.029,252.094 354.735 C 252.372 354.441,253.075 353.570,253.655 352.800 C 254.235 352.030,255.045 351.010,255.455 350.534 C 256.218 349.646,256.572 349.215,258.525 346.795 C 259.144 346.028,260.090 344.860,260.627 344.200 C 264.035 340.015,270.000 331.501,270.000 330.822 C 270.000 330.590,270.152 330.400,270.337 330.400 C 270.523 330.400,271.108 329.545,271.637 328.500 C 272.167 327.455,272.735 326.540,272.900 326.467 C 273.065 326.393,273.200 325.988,273.200 325.567 C 273.200 325.145,273.380 324.800,273.600 324.800 C 273.820 324.800,274.000 324.440,274.000 324.000 C 274.000 323.560,274.180 323.200,274.400 323.200 C 274.620 323.200,274.800 322.936,274.800 322.614 C 274.800 322.292,275.129 321.852,275.531 321.637 C 276.336 321.206,277.600 322.285,277.600 323.405 C 277.600 323.732,277.759 324.000,277.953 324.000 C 278.148 324.000,278.407 324.315,278.529 324.700 C 280.498 330.910,288.800 330.960,288.800 324.762 C 288.800 324.343,288.980 324.000,289.200 324.000 C 289.420 324.000,289.600 323.561,289.600 323.024 C 289.600 322.487,289.780 321.936,290.000 321.800 C 290.220 321.664,290.400 321.203,290.400 320.776 C 290.400 320.349,290.580 320.000,290.800 320.000 C 291.020 320.000,291.200 319.565,291.200 319.033 C 291.200 318.502,291.342 318.007,291.515 317.933 C 291.688 317.860,292.319 316.810,292.918 315.600 C 293.517 314.390,294.631 312.320,295.394 311.000 C 296.157 309.680,297.089 308.015,297.465 307.300 C 297.841 306.585,298.295 306.000,298.474 306.000 C 298.653 306.000,298.800 305.764,298.800 305.475 C 298.800 305.187,299.115 304.602,299.500 304.175 C 299.885 303.749,300.455 302.905,300.768 302.300 C 301.080 301.695,301.485 301.200,301.668 301.200 C 301.850 301.200,302.000 301.009,302.000 300.777 C 302.000 300.343,304.106 297.480,305.219 296.400 C 305.559 296.070,306.271 295.170,306.800 294.400 C 307.329 293.630,308.041 292.727,308.381 292.394 C 308.721 292.061,309.205 291.431,309.457 290.994 C 310.750 288.745,318.645 296.548,323.020 304.400 C 323.449 305.170,323.935 305.860,324.100 305.933 C 324.265 306.007,324.400 306.412,324.400 306.833 C 324.400 307.255,324.580 307.600,324.800 307.600 C 325.020 307.600,325.200 307.960,325.200 308.400 C 325.200 308.840,325.380 309.200,325.600 309.200 C 325.820 309.200,326.000 309.545,326.000 309.967 C 326.000 310.388,326.135 310.793,326.300 310.867 C 326.590 310.996,328.087 313.955,328.897 316.000 C 329.115 316.550,329.452 317.313,329.647 317.695 C 329.841 318.077,330.000 318.664,330.000 319.000 C 330.000 319.336,330.180 319.968,330.400 320.405 C 330.620 320.842,330.980 321.558,331.200 321.995 C 331.420 322.432,331.600 322.980,331.600 323.213 C 331.600 323.967,333.539 325.600,334.435 325.600 C 336.035 325.600,337.956 322.514,336.800 321.800 C 336.580 321.664,336.400 321.201,336.400 320.771 C 336.400 320.016,336.256 319.626,335.262 317.705 C 335.008 317.213,334.800 316.555,334.800 316.243 C 334.800 315.931,334.414 314.894,333.943 313.938 C 333.472 312.982,332.951 311.840,332.785 311.400 C 331.433 307.810,326.464 299.023,325.207 298.000 C 325.072 297.890,324.525 297.170,323.992 296.400 C 323.458 295.630,322.702 294.651,322.311 294.225 C 321.920 293.798,321.600 293.291,321.600 293.097 C 321.600 292.903,319.980 291.200,318.000 289.313 C 316.020 287.426,314.400 285.629,314.400 285.319 C 314.400 284.734,317.222 280.380,318.481 279.025 C 318.876 278.598,319.200 278.013,319.200 277.725 C 319.200 277.436,319.338 277.200,319.506 277.200 C 319.674 277.200,320.118 276.525,320.494 275.700 C 321.720 273.003,323.204 270.800,323.794 270.800 C 325.107 270.800,335.384 282.985,338.638 288.400 C 340.589 291.648,341.707 292.804,342.882 292.787 C 345.328 292.753,346.226 290.234,344.630 287.882 C 344.063 287.047,343.600 286.270,343.600 286.154 C 343.600 286.039,343.060 285.159,342.400 284.200 C 341.740 283.241,341.200 282.352,341.200 282.224 C 341.200 282.097,340.660 281.428,340.000 280.737 C 339.340 280.046,338.800 279.304,338.800 279.088 C 338.800 278.871,338.476 278.403,338.081 278.047 C 337.686 277.691,336.928 276.770,336.398 276.000 C 335.868 275.230,333.402 272.565,330.917 270.079 C 326.600 265.757,325.069 263.200,326.800 263.200 C 327.020 263.200,327.200 262.864,327.200 262.453 C 327.200 262.043,327.547 260.828,327.970 259.753 C 328.394 258.679,329.049 256.720,329.426 255.400 C 330.771 250.688,331.297 249.200,331.615 249.200 C 332.414 249.200,337.736 254.259,342.249 259.308 C 344.814 262.178,346.265 262.619,347.777 260.987 C 349.365 259.273,349.131 258.687,345.200 254.539 C 343.770 253.030,342.240 251.347,341.800 250.798 C 341.360 250.249,340.015 248.990,338.811 248.000 C 332.901 243.139,332.285 242.471,332.576 241.246 C 334.341 233.833,333.362 214.292,330.741 204.600 C 330.324 203.060,329.818 201.170,329.616 200.400 C 328.785 197.232,327.104 191.754,326.764 191.105 C 326.564 190.723,326.400 190.059,326.400 189.629 C 326.400 189.199,326.220 188.736,326.000 188.600 C 325.780 188.464,325.600 187.913,325.600 187.376 C 325.600 186.839,325.420 186.400,325.200 186.400 C 324.980 186.400,324.800 185.961,324.800 185.424 C 324.800 184.887,324.620 184.336,324.400 184.200 C 324.180 184.064,324.000 183.524,324.000 183.000 C 324.000 182.476,323.820 181.936,323.600 181.800 C 323.380 181.664,323.200 181.124,323.200 180.600 C 323.200 180.076,323.020 179.536,322.800 179.400 C 322.580 179.264,322.400 178.724,322.400 178.200 C 322.400 177.676,322.220 177.136,322.000 177.000 C 321.780 176.864,321.600 176.324,321.600 175.800 C 321.600 175.276,321.456 174.758,321.279 174.649 C 321.103 174.540,320.707 173.528,320.400 172.400 C 320.093 171.272,319.697 170.260,319.521 170.151 C 319.344 170.042,319.200 169.524,319.200 169.000 C 319.200 168.476,319.020 167.936,318.800 167.800 C 318.580 167.664,318.400 167.124,318.400 166.600 C 318.400 166.076,318.220 165.536,318.000 165.400 C 317.780 165.264,317.600 164.743,317.600 164.243 C 317.600 163.743,317.465 163.199,317.300 163.034 C 316.754 162.489,316.145 159.810,316.428 159.200 C 316.581 158.870,316.885 158.150,317.103 157.600 C 317.320 157.050,317.904 155.700,318.400 154.600 C 318.896 153.500,319.459 152.195,319.651 151.700 C 320.363 149.866,320.903 148.581,321.247 147.905 C 321.441 147.523,321.600 146.938,321.600 146.605 C 321.600 146.272,321.780 146.000,322.000 146.000 C 322.220 146.000,322.400 145.651,322.400 145.224 C 322.400 144.797,322.580 144.336,322.800 144.200 C 323.020 144.064,323.200 143.513,323.200 142.976 C 323.200 142.439,323.380 142.000,323.600 142.000 C 323.820 142.000,324.000 141.638,324.000 141.195 C 324.000 140.752,324.159 140.077,324.353 139.695 C 324.548 139.313,324.929 138.460,325.200 137.800 C 325.471 137.140,325.852 136.287,326.047 135.905 C 326.241 135.523,326.400 134.878,326.400 134.472 C 326.400 134.066,326.523 133.610,326.674 133.459 C 327.238 132.895,328.823 127.710,331.645 117.200 C 332.191 115.165,333.481 108.823,333.841 106.400 C 333.956 105.630,334.208 104.640,334.401 104.200 C 334.595 103.760,334.855 102.230,334.980 100.800 C 335.104 99.370,335.394 96.760,335.622 95.000 C 336.674 86.904,336.672 66.320,335.619 56.400 C 335.398 54.310,335.107 51.520,334.973 50.200 C 334.839 48.880,334.565 47.629,334.365 47.420 C 334.164 47.211,334.000 46.187,334.000 45.144 C 334.000 44.101,333.820 43.136,333.600 43.000 C 333.380 42.864,333.200 42.055,333.200 41.202 C 333.200 40.350,333.041 39.233,332.846 38.722 C 332.491 37.788,332.536 37.651,334.888 32.400 C 336.600 28.579,338.893 24.247,339.300 24.067 C 339.465 23.993,339.600 23.588,339.600 23.167 C 339.600 22.745,339.759 22.400,339.953 22.400 C 340.148 22.400,340.407 22.085,340.529 21.700 C 340.758 20.976,341.843 19.122,342.678 18.027 C 342.940 17.682,343.990 16.276,345.009 14.903 C 346.921 12.328,348.855 10.518,350.726 9.554 C 352.570 8.603,354.400 6.335,354.400 5.000 C 354.400 2.558,350.941 0.156,348.600 0.971 M78.107 47.300 C 79.415 48.675,81.500 50.966,82.742 52.390 C 83.984 53.815,85.360 55.363,85.800 55.831 C 86.240 56.299,87.680 57.891,89.000 59.370 C 90.320 60.848,92.030 62.736,92.800 63.565 C 95.034 65.971,98.051 69.346,100.037 71.660 C 101.048 72.837,103.038 75.150,104.460 76.800 C 105.882 78.450,107.395 80.228,107.823 80.750 C 108.250 81.273,108.960 82.084,109.400 82.552 C 109.840 83.020,111.007 84.392,111.993 85.601 C 112.979 86.811,114.060 88.070,114.396 88.400 C 115.451 89.437,117.508 91.930,121.984 97.600 C 123.113 99.030,124.256 100.470,124.524 100.800 C 124.792 101.130,125.454 102.030,125.995 102.800 C 126.536 103.570,127.298 104.549,127.689 104.975 C 128.080 105.402,128.400 105.905,128.400 106.094 C 128.400 106.282,128.850 106.886,129.400 107.436 C 130.759 108.795,130.061 111.200,128.308 111.200 C 128.120 111.200,127.580 111.560,127.108 112.000 C 125.290 113.693,124.414 113.132,118.000 106.160 C 114.824 102.709,106.531 93.852,100.620 87.600 C 97.812 84.630,94.679 81.217,93.658 80.015 C 92.636 78.813,90.360 76.374,88.600 74.595 C 86.840 72.816,83.960 69.765,82.200 67.817 C 80.440 65.868,77.695 62.933,76.100 61.296 L 73.200 58.318 73.200 55.783 C 73.200 54.388,73.380 53.136,73.600 53.000 C 73.820 52.864,74.000 51.694,74.000 50.400 C 74.000 49.106,74.180 47.936,74.400 47.800 C 74.620 47.664,74.800 47.053,74.800 46.443 C 74.800 45.405,75.069 44.800,75.532 44.800 C 75.641 44.800,76.800 45.925,78.107 47.300 M325.200 46.400 C 325.200 47.034,325.380 47.664,325.600 47.800 C 325.820 47.936,326.000 49.106,326.000 50.400 C 326.000 51.694,326.180 52.864,326.400 53.000 C 326.620 53.136,326.800 54.386,326.800 55.777 L 326.800 58.307 324.300 60.895 C 322.925 62.319,320.180 65.254,318.200 67.417 C 316.220 69.580,313.340 72.629,311.800 74.192 C 310.260 75.755,307.750 78.443,306.221 80.165 C 304.693 81.887,301.453 85.404,299.021 87.981 C 292.246 95.161,285.534 102.345,283.152 104.969 C 278.943 109.602,275.630 112.800,275.038 112.800 C 274.196 112.800,272.400 111.939,272.400 111.536 C 272.400 111.351,272.164 111.200,271.875 111.200 C 269.960 111.200,269.169 108.867,270.600 107.436 C 271.150 106.886,271.600 106.282,271.600 106.094 C 271.600 105.905,271.920 105.402,272.311 104.975 C 272.702 104.549,273.464 103.570,274.005 102.800 C 274.934 101.478,275.373 100.916,276.800 99.220 C 277.130 98.827,277.850 97.914,278.400 97.190 C 280.302 94.685,284.948 88.998,285.580 88.400 C 285.929 88.070,287.021 86.811,288.007 85.601 C 288.993 84.392,290.160 83.011,290.600 82.532 C 292.032 80.974,293.346 79.451,296.587 75.594 C 298.340 73.507,300.054 71.530,300.395 71.200 C 300.737 70.870,301.530 69.970,302.157 69.200 C 302.785 68.430,304.492 66.518,305.949 64.951 C 308.177 62.557,313.174 57.061,314.600 55.436 C 324.324 44.356,325.200 43.610,325.200 46.400 M109.662 65.265 C 110.246 65.669,110.843 66.000,110.990 66.000 C 111.136 66.000,112.041 66.540,113.000 67.200 C 113.959 67.860,114.859 68.400,115.000 68.400 C 115.141 68.400,116.041 68.940,117.000 69.600 C 117.959 70.260,118.937 70.800,119.172 70.800 C 119.407 70.800,119.600 70.980,119.600 71.200 C 119.600 71.420,119.870 71.600,120.200 71.600 C 120.530 71.600,120.800 71.780,120.800 72.000 C 120.800 72.220,121.070 72.400,121.400 72.400 C 121.730 72.400,122.000 72.580,122.000 72.800 C 122.000 73.020,122.360 73.200,122.800 73.200 C 123.240 73.200,123.600 73.350,123.600 73.532 C 123.600 73.715,124.095 74.120,124.700 74.432 C 125.305 74.744,125.890 75.089,126.000 75.199 C 126.394 75.595,128.613 76.854,129.300 77.071 C 129.685 77.193,130.000 77.452,130.000 77.647 C 130.000 77.841,130.170 78.000,130.377 78.000 C 130.738 78.000,139.586 83.133,140.000 83.583 C 141.422 85.127,146.745 86.256,147.820 85.241 C 148.029 85.044,148.920 84.780,149.800 84.656 C 153.719 84.104,154.649 83.929,155.400 83.606 C 155.840 83.416,157.010 83.142,158.000 82.995 C 158.990 82.849,160.790 82.579,162.000 82.394 C 171.935 80.883,174.127 80.639,185.200 79.819 C 195.592 79.050,204.408 79.050,214.800 79.819 C 225.873 80.639,228.065 80.883,238.000 82.394 C 239.210 82.579,241.010 82.849,242.000 82.995 C 242.990 83.142,244.160 83.416,244.600 83.606 C 245.351 83.929,246.281 84.104,250.200 84.656 C 251.080 84.780,251.971 85.044,252.180 85.241 C 253.252 86.254,258.506 85.146,260.000 83.592 C 260.436 83.139,269.286 78.000,269.631 78.000 C 269.834 78.000,270.000 77.841,270.000 77.647 C 270.000 77.452,270.315 77.193,270.700 77.071 C 271.385 76.854,273.604 75.596,274.000 75.200 C 274.396 74.804,276.615 73.546,277.300 73.329 C 277.685 73.207,278.000 72.948,278.000 72.753 C 278.000 72.559,278.270 72.400,278.600 72.400 C 278.930 72.400,279.200 72.220,279.200 72.000 C 279.200 71.780,279.470 71.600,279.800 71.600 C 280.130 71.600,280.400 71.420,280.400 71.200 C 280.400 70.980,280.593 70.800,280.828 70.800 C 281.063 70.800,282.041 70.260,283.000 69.600 C 283.959 68.940,284.864 68.400,285.010 68.400 C 285.157 68.400,285.754 68.061,286.338 67.647 C 287.354 66.926,289.494 65.663,291.571 64.558 C 293.542 63.509,293.285 65.264,291.126 67.604 C 290.617 68.156,289.486 69.506,288.614 70.604 C 287.741 71.702,286.931 72.690,286.814 72.800 C 286.696 72.910,285.917 73.851,285.081 74.890 C 284.246 75.930,283.346 77.010,283.081 77.290 C 282.817 77.571,282.093 78.479,281.473 79.309 C 280.853 80.139,279.953 81.220,279.473 81.712 C 278.993 82.203,278.125 83.234,277.545 84.003 C 276.965 84.771,276.155 85.790,275.745 86.266 C 273.972 88.327,273.243 89.269,268.745 95.306 C 266.136 98.808,263.692 102.197,263.315 102.837 C 262.937 103.477,262.486 104.000,262.314 104.000 C 262.141 104.000,262.000 104.236,262.000 104.525 C 262.000 104.813,261.685 105.398,261.300 105.825 C 260.915 106.251,260.345 107.095,260.032 107.700 C 259.720 108.305,259.315 108.800,259.132 108.800 C 258.950 108.800,258.800 109.790,258.800 111.000 C 258.800 112.210,258.980 113.200,259.200 113.200 C 259.420 113.200,259.600 113.427,259.600 113.704 C 259.600 114.255,260.353 114.787,263.438 116.416 C 265.421 117.463,271.599 121.483,272.000 121.987 C 272.110 122.125,272.830 122.671,273.600 123.200 C 274.370 123.729,275.270 124.449,275.600 124.800 C 275.930 125.151,276.830 125.861,277.600 126.377 C 279.260 127.491,293.200 141.491,293.200 142.045 C 293.200 142.255,293.785 143.027,294.500 143.760 C 295.215 144.494,296.089 145.450,296.443 145.885 C 298.814 148.801,301.465 152.385,303.376 155.258 C 304.598 157.096,305.736 158.780,305.903 159.000 C 306.071 159.220,306.640 160.300,307.167 161.400 C 307.695 162.500,308.278 163.713,308.463 164.095 C 308.648 164.477,308.800 165.141,308.800 165.571 C 308.800 166.001,308.980 166.464,309.200 166.600 C 309.420 166.736,309.600 167.276,309.600 167.800 C 309.600 168.324,309.780 168.864,310.000 169.000 C 310.220 169.136,310.400 169.676,310.400 170.200 C 310.400 170.724,310.580 171.264,310.800 171.400 C 311.020 171.536,311.200 172.076,311.200 172.600 C 311.200 173.124,311.344 173.642,311.521 173.751 C 311.697 173.860,312.093 174.872,312.400 176.000 C 312.707 177.128,313.103 178.140,313.279 178.249 C 313.456 178.358,313.600 178.876,313.600 179.400 C 313.600 179.924,313.780 180.464,314.000 180.600 C 314.220 180.736,314.400 181.276,314.400 181.800 C 314.400 182.324,314.580 182.864,314.800 183.000 C 315.020 183.136,315.200 183.676,315.200 184.200 C 315.200 184.724,315.380 185.264,315.600 185.400 C 315.820 185.536,316.000 185.999,316.000 186.429 C 316.000 186.859,316.177 187.523,316.394 187.905 C 317.391 189.664,321.723 203.633,322.847 208.716 C 325.001 218.456,325.579 236.800,323.732 236.800 C 323.134 236.800,319.804 235.396,317.062 233.989 C 316.216 233.555,315.192 233.200,314.786 233.200 C 314.380 233.200,313.936 233.020,313.800 232.800 C 313.664 232.580,313.124 232.400,312.600 232.400 C 312.076 232.400,311.536 232.220,311.400 232.000 C 311.264 231.780,310.724 231.600,310.200 231.600 C 309.676 231.600,309.136 231.420,309.000 231.200 C 308.864 230.980,307.989 230.800,307.056 230.800 C 306.123 230.800,305.189 230.637,304.980 230.439 C 304.572 230.051,302.490 229.734,297.400 229.283 L 294.200 229.000 294.308 227.800 C 294.820 222.120,294.200 216.000,293.113 216.000 C 292.941 216.000,292.800 215.640,292.800 215.200 C 292.800 214.760,292.620 214.400,292.400 214.400 C 292.180 214.400,292.000 214.130,292.000 213.800 C 292.000 213.470,291.820 213.200,291.600 213.200 C 291.380 213.200,291.200 212.930,291.200 212.600 C 291.200 212.270,291.020 212.000,290.800 212.000 C 290.580 212.000,290.400 211.722,290.400 211.383 C 290.400 211.044,290.040 210.380,289.600 209.908 C 289.160 209.436,288.800 208.813,288.800 208.525 C 288.800 208.236,288.620 208.000,288.400 208.000 C 288.180 208.000,288.000 207.807,288.000 207.572 C 288.000 207.185,285.777 203.683,285.224 203.200 C 285.098 203.090,284.514 202.353,283.926 201.563 C 282.317 199.403,278.286 195.414,276.859 194.571 C 276.167 194.162,275.600 193.686,275.600 193.514 C 275.600 193.341,275.364 193.200,275.075 193.200 C 274.787 193.200,274.164 192.840,273.692 192.400 C 273.220 191.960,272.592 191.600,272.297 191.600 C 272.002 191.600,271.589 191.447,271.380 191.260 C 266.357 186.760,250.663 186.615,241.869 190.988 C 236.450 193.683,227.600 202.734,227.600 205.582 C 227.600 205.812,227.454 206.000,227.275 206.000 C 227.096 206.000,226.702 206.630,226.400 207.400 C 226.098 208.170,225.704 208.800,225.525 208.800 C 225.346 208.800,225.200 209.145,225.200 209.567 C 225.200 209.988,225.058 210.393,224.886 210.467 C 223.582 211.019,221.729 216.615,222.513 217.635 C 224.228 219.869,226.109 219.213,228.099 215.686 C 229.495 213.212,229.168 213.261,235.600 214.583 C 242.089 215.916,253.201 213.962,256.302 210.942 C 256.579 210.673,257.164 210.338,257.602 210.199 C 258.041 210.060,258.400 209.778,258.400 209.573 C 258.400 209.368,258.649 209.200,258.953 209.200 C 259.785 209.200,264.950 203.837,267.516 200.309 C 270.080 196.782,270.460 196.652,273.027 198.419 C 275.366 200.028,280.800 205.481,280.800 206.219 C 280.800 206.539,280.950 206.800,281.132 206.800 C 281.315 206.800,281.720 207.295,282.032 207.900 C 282.344 208.505,282.689 209.090,282.799 209.200 C 282.910 209.310,283.260 209.850,283.578 210.400 C 283.897 210.950,285.075 212.930,286.198 214.800 C 290.688 222.278,290.206 228.661,285.102 229.348 C 284.166 229.474,282.230 229.758,280.800 229.979 C 279.370 230.200,277.390 230.493,276.400 230.631 C 275.410 230.769,274.429 231.044,274.220 231.241 C 274.011 231.438,273.347 231.600,272.744 231.600 C 272.141 231.600,271.536 231.780,271.400 232.000 C 271.264 232.220,270.758 232.403,270.276 232.406 C 269.319 232.413,266.580 233.287,266.141 233.726 C 265.990 233.877,265.483 234.000,265.013 234.000 C 264.544 234.000,263.989 234.143,263.780 234.318 C 263.571 234.493,262.680 234.878,261.800 235.173 C 259.556 235.926,249.234 240.692,248.800 241.177 C 248.454 241.563,246.230 242.840,245.500 243.071 C 245.115 243.193,244.800 243.452,244.800 243.647 C 244.800 243.841,244.564 244.000,244.275 244.000 C 243.987 244.000,243.364 244.360,242.892 244.800 C 242.420 245.240,241.873 245.600,241.676 245.600 C 240.771 245.600,238.800 248.058,238.800 249.188 C 238.800 251.740,242.034 252.841,243.600 250.822 C 244.017 250.285,252.719 245.293,255.400 244.054 C 256.940 243.341,258.892 242.408,259.738 241.979 C 260.584 241.551,261.529 241.200,261.838 241.200 C 262.147 241.200,262.400 241.020,262.400 240.800 C 262.400 240.580,262.749 240.400,263.176 240.400 C 263.603 240.400,264.064 240.220,264.200 240.000 C 264.336 239.780,264.887 239.600,265.424 239.600 C 265.961 239.600,266.400 239.420,266.400 239.200 C 266.400 238.980,266.839 238.800,267.376 238.800 C 267.913 238.800,268.464 238.620,268.600 238.400 C 268.736 238.180,269.366 238.000,270.000 238.000 C 270.634 238.000,271.264 237.820,271.400 237.600 C 271.536 237.380,272.166 237.200,272.800 237.200 C 273.434 237.200,274.064 237.020,274.200 236.800 C 274.561 236.216,276.801 236.303,276.793 236.900 C 276.789 237.175,275.304 238.934,273.493 240.808 C 271.682 242.683,269.708 244.872,269.106 245.674 C 268.504 246.475,267.784 247.371,267.506 247.665 C 267.228 247.959,266.370 249.047,265.600 250.081 C 263.995 252.238,263.294 252.566,257.200 254.015 C 255.251 254.479,249.497 256.252,248.200 256.789 C 247.760 256.971,246.547 257.498,245.504 257.960 C 244.462 258.422,243.337 258.800,243.004 258.800 C 242.672 258.800,242.400 258.980,242.400 259.200 C 242.400 259.420,242.040 259.600,241.600 259.600 C 241.160 259.600,240.800 259.780,240.800 260.000 C 240.800 260.220,240.595 260.400,240.344 260.400 C 239.665 260.400,238.827 261.672,238.813 262.726 C 238.776 265.410,240.798 265.906,244.689 264.167 C 245.960 263.599,247.990 262.776,249.200 262.339 C 250.410 261.901,251.760 261.396,252.200 261.217 C 252.640 261.038,253.810 260.672,254.800 260.404 C 255.790 260.136,256.999 259.762,257.486 259.573 C 259.016 258.980,258.855 259.777,256.495 264.453 L 254.200 269.000 252.200 269.268 C 240.573 270.829,238.800 271.412,238.800 273.678 C 238.800 275.906,243.112 277.760,244.200 276.000 C 244.336 275.780,245.416 275.600,246.600 275.600 C 247.784 275.600,248.864 275.420,249.000 275.200 C 249.136 274.980,249.687 274.800,250.224 274.800 C 251.257 274.800,251.724 277.229,250.800 277.800 C 250.580 277.936,250.400 278.399,250.400 278.829 C 250.400 279.259,250.241 279.923,250.047 280.305 C 249.852 280.687,249.471 281.540,249.200 282.200 C 248.929 282.860,248.548 283.713,248.353 284.095 C 248.159 284.477,248.000 285.062,248.000 285.395 C 248.000 285.728,247.864 286.000,247.698 286.000 C 247.531 286.000,247.171 286.506,246.897 287.125 C 246.624 287.744,246.040 288.636,245.600 289.108 C 245.160 289.580,244.800 290.069,244.800 290.194 C 244.800 290.540,241.265 294.000,240.911 294.000 C 240.740 294.001,240.076 294.452,239.435 295.003 C 238.794 295.554,237.264 296.469,236.035 297.037 C 234.806 297.605,233.487 298.234,233.105 298.435 C 232.723 298.636,231.879 298.800,231.229 298.800 C 230.579 298.800,229.936 298.980,229.800 299.200 C 229.656 299.433,227.404 299.600,224.400 299.600 C 221.396 299.600,219.144 299.433,219.000 299.200 C 218.864 298.980,218.311 298.800,217.771 298.800 C 217.231 298.800,216.387 298.592,215.895 298.338 C 214.018 297.367,213.593 297.200,213.005 297.200 C 212.672 297.200,212.400 297.020,212.400 296.800 C 212.400 296.580,212.164 296.400,211.875 296.400 C 211.587 296.400,210.964 296.040,210.492 295.600 C 210.020 295.160,209.470 294.800,209.270 294.800 C 207.051 294.800,203.761 289.259,205.100 287.775 C 205.485 287.349,206.055 286.505,206.368 285.900 C 206.680 285.295,207.085 284.800,207.268 284.800 C 207.450 284.800,207.600 284.545,207.600 284.233 C 207.600 283.922,207.748 283.607,207.928 283.533 C 208.109 283.460,210.751 279.710,213.800 275.200 C 216.849 270.690,219.491 266.940,219.672 266.867 C 219.852 266.793,220.000 266.561,220.000 266.350 C 220.000 266.139,220.336 265.606,220.746 265.166 C 221.157 264.725,221.907 263.558,222.414 262.573 L 223.336 260.781 221.818 259.390 C 220.983 258.626,220.069 258.000,219.788 258.000 C 219.506 258.000,218.584 257.653,217.738 257.230 C 208.952 252.830,191.048 252.830,182.262 257.230 C 181.416 257.653,180.494 258.000,180.212 258.000 C 179.931 258.000,179.017 258.626,178.182 259.390 L 176.664 260.781 177.586 262.573 C 178.093 263.558,178.843 264.725,179.254 265.166 C 179.664 265.606,180.000 266.139,180.000 266.350 C 180.000 266.561,180.148 266.793,180.328 266.867 C 180.509 266.940,183.151 270.690,186.200 275.200 C 189.249 279.710,191.891 283.460,192.072 283.533 C 192.252 283.607,192.400 283.922,192.400 284.233 C 192.400 284.545,192.550 284.800,192.732 284.800 C 192.915 284.800,193.320 285.295,193.632 285.900 C 193.945 286.505,194.515 287.349,194.900 287.775 C 196.037 289.035,195.753 290.268,193.895 292.126 C 192.048 293.974,188.717 296.400,188.028 296.400 C 187.793 296.400,187.600 296.580,187.600 296.800 C 187.600 297.020,187.240 297.200,186.800 297.200 C 186.360 297.200,186.000 297.380,186.000 297.600 C 186.000 297.820,185.561 298.000,185.024 298.000 C 184.487 298.000,183.936 298.180,183.800 298.400 C 183.664 298.620,183.034 298.800,182.400 298.800 C 181.766 298.800,181.136 298.980,181.000 299.200 C 180.856 299.433,178.604 299.600,175.600 299.600 C 172.596 299.600,170.344 299.433,170.200 299.200 C 170.064 298.980,169.421 298.800,168.771 298.800 C 168.121 298.800,167.277 298.636,166.895 298.435 C 166.513 298.234,165.164 297.590,163.898 297.005 C 162.632 296.419,161.372 295.722,161.098 295.457 C 160.824 295.191,159.970 294.537,159.200 294.002 C 157.025 292.493,153.996 289.063,153.104 287.100 C 152.829 286.495,152.469 286.000,152.302 286.000 C 152.136 286.000,152.000 285.728,152.000 285.395 C 152.000 285.062,151.841 284.477,151.647 284.095 C 151.050 282.922,150.476 281.474,149.945 279.800 C 149.665 278.920,149.293 278.029,149.118 277.820 C 148.319 276.866,148.769 274.800,149.776 274.800 C 150.313 274.800,150.864 274.980,151.000 275.200 C 151.136 275.420,152.216 275.600,153.400 275.600 C 154.584 275.600,155.664 275.780,155.800 276.000 C 156.331 276.859,159.808 276.456,160.779 275.422 C 163.598 272.421,160.553 270.930,148.412 269.364 C 145.744 269.019,145.815 269.092,143.488 264.376 C 141.331 260.008,141.132 259.035,142.500 259.567 C 142.995 259.759,144.210 260.136,145.200 260.404 C 146.190 260.672,147.360 261.038,147.800 261.217 C 148.240 261.396,149.590 261.901,150.800 262.339 C 152.010 262.776,154.061 263.608,155.358 264.188 C 158.339 265.520,160.195 265.434,161.108 263.922 C 161.859 262.678,161.210 260.834,159.900 260.490 C 159.515 260.389,159.200 260.148,159.200 259.953 C 159.200 259.759,158.840 259.600,158.400 259.600 C 157.960 259.600,157.600 259.420,157.600 259.200 C 157.600 258.980,157.328 258.800,156.996 258.800 C 156.663 258.800,155.538 258.422,154.496 257.960 C 153.453 257.498,152.240 256.966,151.800 256.778 C 150.329 256.150,141.876 253.600,141.262 253.600 C 140.683 253.600,138.940 253.102,136.800 252.325 C 136.250 252.126,135.171 251.116,134.403 250.081 C 133.634 249.047,132.909 248.110,132.792 248.000 C 132.675 247.890,131.954 246.991,131.190 246.002 C 130.425 245.013,128.318 242.673,126.507 240.802 C 124.696 238.931,123.211 237.175,123.207 236.900 C 123.199 236.303,125.439 236.216,125.800 236.800 C 125.936 237.020,126.566 237.200,127.200 237.200 C 127.834 237.200,128.464 237.380,128.600 237.600 C 128.736 237.820,129.366 238.000,130.000 238.000 C 130.634 238.000,131.264 238.180,131.400 238.400 C 131.536 238.620,132.087 238.800,132.624 238.800 C 133.161 238.800,133.600 238.980,133.600 239.200 C 133.600 239.420,134.039 239.600,134.576 239.600 C 135.113 239.600,135.664 239.780,135.800 240.000 C 135.936 240.220,136.397 240.400,136.824 240.400 C 137.251 240.400,137.600 240.580,137.600 240.800 C 137.600 241.020,137.845 241.200,138.144 241.200 C 138.443 241.200,139.748 241.718,141.044 242.350 C 142.340 242.983,144.300 243.922,145.400 244.437 C 147.525 245.432,156.063 250.388,156.400 250.822 C 158.313 253.288,162.578 250.993,161.137 248.274 C 160.635 247.325,158.794 245.601,158.283 245.600 C 158.109 245.600,157.580 245.240,157.108 244.800 C 156.636 244.360,156.013 244.000,155.725 244.000 C 155.436 244.000,155.200 243.841,155.200 243.647 C 155.200 243.452,154.885 243.193,154.500 243.071 C 153.770 242.840,151.546 241.563,151.200 241.177 C 150.817 240.750,140.865 236.125,138.400 235.228 C 137.630 234.948,136.640 234.569,136.200 234.386 C 134.109 233.515,130.459 232.400,129.697 232.400 C 129.230 232.400,128.736 232.220,128.600 232.000 C 128.464 231.780,127.859 231.600,127.256 231.600 C 126.653 231.600,125.989 231.438,125.780 231.241 C 125.571 231.044,124.590 230.769,123.600 230.631 C 122.610 230.493,120.720 230.209,119.400 230.000 C 118.080 229.791,116.190 229.505,115.200 229.365 C 112.987 229.052,112.683 228.814,111.634 226.584 C 109.925 222.947,110.398 220.497,113.949 214.600 C 115.142 212.620,116.316 210.596,116.559 210.103 C 116.801 209.610,117.135 209.205,117.300 209.203 C 117.465 209.201,117.600 208.975,117.600 208.700 C 117.601 208.425,118.051 207.677,118.600 207.038 C 119.150 206.399,119.600 205.742,119.600 205.579 C 119.600 205.055,125.108 199.702,126.955 198.431 C 129.540 196.652,129.917 196.780,132.484 200.300 C 135.016 203.773,138.710 207.666,140.450 208.693 C 141.082 209.067,141.600 209.492,141.600 209.638 C 141.600 209.784,142.140 210.127,142.800 210.400 C 143.460 210.673,144.000 211.055,144.000 211.249 C 144.000 211.442,144.276 211.600,144.614 211.600 C 144.952 211.600,145.627 211.854,146.114 212.163 C 150.001 214.636,158.604 215.774,164.400 214.583 C 170.832 213.261,170.505 213.212,171.901 215.686 C 174.042 219.480,177.529 220.069,177.924 216.704 C 178.040 215.717,175.804 210.780,175.100 210.467 C 174.935 210.393,174.800 209.988,174.800 209.567 C 174.800 209.145,174.662 208.800,174.494 208.800 C 174.326 208.800,173.882 208.125,173.506 207.300 C 172.774 205.690,171.543 203.526,171.174 203.200 C 171.049 203.090,170.339 202.100,169.597 201.000 C 161.572 189.118,145.569 184.430,131.647 189.883 C 130.191 190.453,128.829 191.072,128.620 191.260 C 128.411 191.447,127.982 191.600,127.667 191.600 C 127.352 191.600,126.803 191.916,126.447 192.303 C 126.091 192.689,125.260 193.272,124.600 193.598 C 123.497 194.142,116.613 200.727,115.180 202.609 C 113.614 204.665,112.000 207.184,112.000 207.572 C 112.000 207.807,111.820 208.000,111.600 208.000 C 111.380 208.000,111.200 208.236,111.200 208.525 C 111.200 208.813,110.840 209.436,110.400 209.908 C 109.960 210.380,109.600 211.044,109.600 211.383 C 109.600 211.722,109.465 212.001,109.300 212.003 C 109.135 212.005,108.795 212.410,108.544 212.903 C 108.293 213.396,107.489 214.970,106.758 216.400 C 105.401 219.050,105.157 221.586,105.679 227.600 L 105.800 229.000 102.600 229.283 C 97.510 229.734,95.428 230.051,95.020 230.439 C 94.811 230.637,93.877 230.800,92.944 230.800 C 92.011 230.800,91.136 230.980,91.000 231.200 C 90.864 231.420,90.324 231.600,89.800 231.600 C 89.276 231.600,88.736 231.780,88.600 232.000 C 88.464 232.220,87.924 232.400,87.400 232.400 C 86.876 232.400,86.336 232.580,86.200 232.800 C 86.064 233.020,85.620 233.200,85.214 233.200 C 84.808 233.200,83.784 233.555,82.938 233.989 C 80.177 235.406,76.864 236.800,76.256 236.800 C 75.003 236.800,74.792 216.700,76.032 215.420 C 76.234 215.211,76.400 214.097,76.400 212.944 C 76.400 211.791,76.580 210.736,76.800 210.600 C 77.020 210.464,77.200 209.922,77.200 209.396 C 77.200 208.870,77.486 207.395,77.835 206.120 C 78.184 204.844,78.645 203.080,78.858 202.200 C 79.392 200.005,83.129 188.762,83.610 187.905 C 83.824 187.523,84.000 186.859,84.000 186.429 C 84.000 185.999,84.180 185.536,84.400 185.400 C 84.620 185.264,84.800 184.724,84.800 184.200 C 84.800 183.676,84.980 183.136,85.200 183.000 C 85.420 182.864,85.600 182.324,85.600 181.800 C 85.600 181.276,85.744 180.758,85.921 180.649 C 86.097 180.540,86.493 179.528,86.800 178.400 C 87.107 177.272,87.503 176.260,87.679 176.151 C 87.856 176.042,88.000 175.524,88.000 175.000 C 88.000 174.476,88.180 173.936,88.400 173.800 C 88.620 173.664,88.800 173.124,88.800 172.600 C 88.800 172.076,88.980 171.536,89.200 171.400 C 89.420 171.264,89.600 170.724,89.600 170.200 C 89.600 169.676,89.780 169.136,90.000 169.000 C 90.220 168.864,90.400 168.324,90.400 167.800 C 90.400 167.276,90.580 166.736,90.800 166.600 C 91.020 166.464,91.200 165.913,91.200 165.376 C 91.200 164.839,91.380 164.400,91.600 164.400 C 91.820 164.400,92.000 164.045,92.000 163.611 C 92.000 161.749,100.608 148.927,105.000 144.247 C 105.440 143.778,106.333 142.676,106.985 141.797 C 108.573 139.657,120.635 127.587,122.400 126.372 C 123.170 125.842,124.322 124.912,124.959 124.304 C 125.597 123.697,126.296 123.200,126.512 123.200 C 126.729 123.200,127.197 122.871,127.553 122.469 C 128.395 121.517,134.853 117.249,137.317 116.016 C 140.429 114.459,141.200 113.452,141.200 110.945 C 141.200 109.765,141.050 108.800,140.868 108.800 C 140.685 108.800,140.280 108.305,139.968 107.700 C 139.655 107.095,139.085 106.251,138.700 105.825 C 138.315 105.398,138.000 104.813,138.000 104.525 C 138.000 104.236,137.859 104.000,137.686 104.000 C 137.514 104.000,137.063 103.476,136.685 102.836 C 136.307 102.196,134.098 99.091,131.777 95.936 C 127.962 90.752,126.569 88.962,124.255 86.268 C 123.845 85.790,123.037 84.770,122.459 84.000 C 121.881 83.230,121.132 82.330,120.793 82.000 C 120.454 81.670,119.557 80.590,118.799 79.600 C 118.041 78.610,117.315 77.710,117.185 77.600 C 117.055 77.490,115.346 75.420,113.385 73.000 C 111.425 70.580,109.400 68.150,108.884 67.600 C 106.105 64.633,106.600 63.146,109.662 65.265 M83.444 77.026 C 86.547 80.312,89.697 83.717,90.444 84.594 C 91.190 85.471,92.970 87.367,94.400 88.806 C 95.830 90.246,98.775 93.356,100.945 95.717 C 103.114 98.078,105.724 100.874,106.745 101.930 C 107.765 102.986,110.244 105.639,112.253 107.825 C 114.261 110.011,116.826 112.772,117.953 113.960 C 120.543 116.692,120.550 116.642,117.150 119.448 C 115.583 120.742,114.065 122.025,113.779 122.300 C 112.856 123.185,111.844 122.837,109.800 120.932 C 108.700 119.906,106.810 118.164,105.600 117.059 C 104.390 115.955,101.323 113.060,98.785 110.626 C 96.247 108.192,91.669 103.860,88.611 101.000 C 85.553 98.140,82.032 94.810,80.787 93.600 C 79.542 92.390,77.168 90.160,75.511 88.645 L 72.498 85.890 72.222 81.445 C 71.855 75.542,71.854 75.207,72.183 70.800 C 72.588 65.357,72.492 65.429,75.324 68.430 C 76.686 69.872,80.340 73.741,83.444 77.026 M327.791 70.287 C 328.154 74.857,328.153 75.547,327.782 81.445 L 327.502 85.890 324.488 88.645 C 322.830 90.160,320.276 92.570,318.811 94.000 C 317.347 95.430,313.836 98.760,311.008 101.400 C 308.181 104.040,303.602 108.374,300.834 111.032 C 298.065 113.690,294.982 116.604,293.981 117.508 C 292.981 118.412,291.282 119.973,290.204 120.976 C 288.431 122.627,286.694 123.311,286.333 122.500 C 286.260 122.335,285.390 121.537,284.400 120.727 C 279.214 116.483,279.356 116.856,281.900 114.165 C 282.945 113.060,285.690 110.098,288.000 107.582 C 290.310 105.067,292.830 102.376,293.600 101.603 C 294.370 100.829,296.800 98.222,299.000 95.810 C 301.200 93.398,304.170 90.244,305.600 88.802 C 307.030 87.359,309.402 84.834,310.872 83.189 C 312.342 81.545,315.042 78.645,316.872 76.745 C 318.702 74.844,321.701 71.648,323.535 69.643 C 327.483 65.324,327.397 65.311,327.791 70.287 M193.600 91.189 C 193.270 91.408,192.145 91.591,191.100 91.594 C 190.055 91.597,189.200 91.780,189.200 92.000 C 189.200 92.220,188.658 92.400,187.995 92.400 C 187.332 92.400,186.477 92.559,186.095 92.753 C 185.713 92.948,184.950 93.286,184.400 93.505 C 182.678 94.192,176.210 97.368,176.000 97.630 C 175.890 97.768,175.381 98.101,174.868 98.371 C 173.698 98.988,172.812 99.691,170.046 102.200 C 166.575 105.347,165.458 106.498,164.412 108.000 C 163.876 108.770,163.159 109.670,162.819 110.001 C 162.079 110.720,160.838 112.724,160.529 113.700 C 160.407 114.085,160.148 114.400,159.953 114.400 C 159.759 114.400,159.600 114.760,159.600 115.200 C 159.600 115.640,159.420 116.000,159.200 116.000 C 158.980 116.000,158.800 116.360,158.800 116.800 C 158.800 117.240,158.620 117.600,158.400 117.600 C 158.180 117.600,158.000 117.924,158.000 118.320 C 158.000 118.716,157.848 119.211,157.663 119.420 C 157.231 119.906,156.171 123.411,155.369 127.000 C 154.512 130.836,154.176 139.355,154.758 142.495 C 155.441 146.186,156.417 150.487,156.777 151.400 C 157.637 153.579,157.972 154.354,158.849 156.200 C 159.372 157.300,159.935 158.260,160.100 158.333 C 160.265 158.407,160.400 158.772,160.400 159.145 C 160.400 159.518,160.760 160.083,161.200 160.400 C 161.640 160.717,162.000 161.297,162.000 161.688 C 162.000 162.080,162.141 162.400,162.314 162.400 C 162.486 162.400,162.956 162.957,163.358 163.637 C 164.287 165.209,171.330 172.400,171.941 172.400 C 172.193 172.400,172.400 172.580,172.400 172.800 C 172.400 173.020,172.630 173.200,172.912 173.200 C 173.193 173.200,173.683 173.560,174.000 174.000 C 174.317 174.440,174.814 174.800,175.105 174.800 C 175.396 174.800,176.020 175.160,176.492 175.600 C 176.964 176.040,177.587 176.400,177.875 176.400 C 178.164 176.400,178.400 176.580,178.400 176.800 C 178.400 177.020,178.724 177.200,179.120 177.200 C 179.516 177.200,180.011 177.356,180.220 177.546 C 180.783 178.059,185.745 179.842,189.400 180.845 C 194.098 182.135,205.902 182.135,210.600 180.845 C 214.255 179.842,219.217 178.059,219.780 177.546 C 219.989 177.356,220.484 177.200,220.880 177.200 C 221.276 177.200,221.600 177.041,221.600 176.847 C 221.600 176.652,221.915 176.393,222.300 176.271 C 223.342 175.941,225.309 174.696,226.046 173.900 C 226.402 173.515,226.891 173.200,227.132 173.200 C 227.709 173.200,234.730 166.253,236.228 164.200 C 236.870 163.320,237.487 162.510,237.598 162.400 C 237.710 162.290,238.056 161.705,238.368 161.100 C 238.680 160.495,239.085 160.000,239.268 160.000 C 239.450 160.000,239.600 159.655,239.600 159.233 C 239.600 158.812,239.735 158.407,239.900 158.333 C 240.332 158.141,242.000 154.828,242.000 154.162 C 242.000 153.853,242.180 153.600,242.400 153.600 C 242.620 153.600,242.800 153.238,242.800 152.795 C 242.800 152.352,242.962 151.677,243.161 151.295 C 243.360 150.913,243.708 149.880,243.936 149.000 C 244.163 148.120,244.586 146.500,244.875 145.400 C 245.576 142.730,245.581 130.570,244.882 127.600 C 243.813 123.054,243.263 121.293,242.353 119.505 C 242.159 119.123,242.000 118.538,242.000 118.205 C 242.000 117.872,241.820 117.600,241.600 117.600 C 241.380 117.600,241.200 117.240,241.200 116.800 C 241.200 116.360,241.020 116.000,240.800 116.000 C 240.580 116.000,240.400 115.640,240.400 115.200 C 240.400 114.760,240.241 114.400,240.047 114.400 C 239.852 114.400,239.593 114.085,239.471 113.700 C 239.133 112.633,237.924 110.786,236.700 109.467 C 236.095 108.815,235.600 108.111,235.600 107.904 C 235.600 107.448,229.961 101.916,228.000 100.448 C 227.230 99.872,226.362 99.175,226.071 98.900 C 225.781 98.625,225.389 98.400,225.200 98.400 C 225.011 98.400,224.619 98.172,224.329 97.894 C 223.830 97.417,217.775 94.373,215.600 93.505 C 215.050 93.286,214.287 92.948,213.905 92.753 C 213.523 92.559,212.668 92.400,212.005 92.400 C 211.342 92.400,210.800 92.237,210.800 92.037 C 210.800 91.235,194.725 90.442,193.600 91.189 M76.636 97.046 C 78.323 98.632,85.576 105.505,91.994 111.600 C 93.036 112.590,96.366 115.740,99.394 118.600 C 102.421 121.460,105.596 124.461,106.449 125.269 C 108.457 127.170,108.431 127.311,105.471 130.500 C 102.588 133.607,101.961 133.762,99.400 132.000 C 98.441 131.340,97.463 130.800,97.228 130.800 C 96.993 130.800,96.800 130.620,96.800 130.400 C 96.800 130.180,96.564 130.000,96.275 130.000 C 95.987 130.000,95.402 129.685,94.975 129.300 C 94.549 128.915,93.705 128.345,93.100 128.032 C 92.495 127.720,92.000 127.315,92.000 127.132 C 92.000 126.950,91.722 126.800,91.383 126.800 C 91.044 126.800,90.380 126.440,89.908 126.000 C 89.436 125.560,88.813 125.200,88.525 125.200 C 88.236 125.200,88.000 125.020,88.000 124.800 C 88.000 124.580,87.839 124.400,87.643 124.400 C 87.284 124.400,81.482 120.913,78.700 119.026 C 77.392 118.138,77.200 117.806,77.200 116.427 C 77.200 115.558,77.020 114.736,76.800 114.600 C 76.580 114.464,76.400 113.654,76.400 112.800 C 76.400 111.946,76.220 111.136,76.000 111.000 C 75.780 110.864,75.600 110.144,75.600 109.400 C 75.600 108.656,75.420 107.936,75.200 107.800 C 74.980 107.664,74.800 106.584,74.800 105.400 C 74.800 104.216,74.620 103.136,74.400 103.000 C 74.180 102.864,74.000 101.784,74.000 100.600 C 74.000 99.416,73.820 98.336,73.600 98.200 C 73.380 98.064,73.200 97.333,73.200 96.576 C 73.200 94.630,74.214 94.769,76.636 97.046 M326.800 96.576 C 326.800 97.333,326.620 98.064,326.400 98.200 C 326.180 98.336,326.000 99.416,326.000 100.600 C 326.000 101.784,325.820 102.864,325.600 103.000 C 325.380 103.136,325.200 104.216,325.200 105.400 C 325.200 106.584,325.039 107.652,324.842 107.774 C 324.645 107.895,324.387 108.671,324.268 109.497 C 324.149 110.324,323.850 111.900,323.604 113.000 C 323.357 114.100,323.054 115.630,322.930 116.400 C 322.601 118.445,321.974 118.936,313.200 124.021 C 312.650 124.339,312.110 124.690,312.000 124.801 C 311.890 124.911,311.305 125.256,310.700 125.568 C 310.095 125.880,309.600 126.285,309.600 126.468 C 309.600 126.650,309.410 126.800,309.178 126.800 C 308.946 126.800,307.696 127.520,306.400 128.400 C 305.104 129.280,303.854 130.000,303.622 130.000 C 303.390 130.000,303.200 130.180,303.200 130.400 C 303.200 130.620,302.930 130.800,302.600 130.800 C 302.270 130.800,302.000 130.980,302.000 131.200 C 302.000 131.420,301.810 131.600,301.579 131.600 C 301.347 131.600,300.495 132.050,299.686 132.600 C 297.740 133.922,297.967 134.010,294.786 130.701 C 291.386 127.163,291.389 127.299,294.662 124.266 C 296.126 122.910,298.168 120.990,299.199 120.000 C 300.230 119.010,303.557 115.860,306.591 113.000 C 309.625 110.140,314.199 105.794,316.754 103.342 C 326.212 94.268,326.800 93.872,326.800 96.576 M207.200 96.835 C 210.595 97.484,214.793 98.852,217.000 100.027 C 218.100 100.613,219.809 101.522,220.797 102.046 C 221.785 102.571,222.996 103.393,223.488 103.873 C 223.979 104.353,225.058 105.253,225.885 105.873 C 227.784 107.296,229.494 109.002,230.894 110.871 C 231.496 111.674,232.250 112.593,232.571 112.914 C 238.491 118.834,241.755 135.608,239.039 146.148 C 238.100 149.792,235.083 156.823,234.326 157.133 C 234.147 157.207,234.000 157.488,234.000 157.758 C 234.000 158.028,233.685 158.598,233.300 159.025 C 232.915 159.452,232.067 160.514,231.415 161.385 C 229.861 163.463,227.045 166.279,224.800 168.000 C 223.810 168.758,222.910 169.489,222.800 169.623 C 222.546 169.931,215.797 173.378,214.200 174.015 C 213.540 174.278,212.687 174.652,212.305 174.847 C 211.923 175.041,211.079 175.200,210.429 175.200 C 209.779 175.200,209.136 175.380,209.000 175.600 C 208.864 175.820,207.899 176.000,206.856 176.000 C 205.813 176.000,204.786 176.174,204.574 176.386 C 204.017 176.943,196.034 176.994,195.484 176.444 C 195.240 176.200,194.187 176.000,193.144 176.000 C 192.101 176.000,191.136 175.820,191.000 175.600 C 190.864 175.380,190.221 175.200,189.571 175.200 C 188.921 175.200,188.077 175.041,187.695 174.847 C 187.313 174.652,186.550 174.315,186.000 174.098 C 184.514 173.510,177.431 169.911,177.200 169.626 C 177.090 169.490,176.190 168.756,175.200 167.993 C 173.025 166.318,169.999 163.282,168.502 161.273 C 167.899 160.463,167.289 159.710,167.149 159.600 C 167.008 159.490,166.486 158.680,165.990 157.800 C 165.493 156.920,164.643 155.410,164.100 154.445 C 158.453 144.404,158.621 128.546,164.489 117.845 C 165.320 116.329,166.000 114.979,166.000 114.845 C 166.001 114.710,166.471 114.060,167.045 113.400 C 167.620 112.740,168.564 111.572,169.145 110.806 C 170.591 108.894,172.333 107.173,174.000 106.009 C 174.770 105.471,175.877 104.529,176.460 103.915 C 177.044 103.302,177.809 102.800,178.160 102.800 C 178.512 102.800,178.800 102.641,178.800 102.447 C 178.800 102.252,179.115 101.993,179.500 101.870 C 179.885 101.748,181.280 101.043,182.600 100.304 C 184.716 99.119,188.031 97.919,191.800 96.972 C 195.057 96.153,203.258 96.080,207.200 96.835 M196.600 101.576 C 196.160 101.778,194.943 101.956,193.895 101.972 C 192.847 101.987,191.677 102.162,191.295 102.361 C 190.913 102.560,189.790 102.951,188.800 103.231 C 186.522 103.876,181.091 106.607,179.611 107.852 C 178.992 108.373,178.372 108.800,178.234 108.800 C 177.873 108.800,174.058 112.703,172.337 114.834 C 169.807 117.964,167.428 122.604,166.407 126.400 C 166.140 127.390,165.747 128.533,165.533 128.939 C 165.320 129.345,165.140 132.614,165.133 136.203 C 165.123 142.317,165.388 144.395,166.449 146.495 C 166.642 146.877,166.800 147.464,166.800 147.800 C 166.800 148.136,166.962 148.723,167.160 149.105 C 167.357 149.487,168.106 150.970,168.824 152.400 C 172.025 158.780,177.438 164.386,183.200 167.287 C 184.630 168.007,185.860 168.732,185.933 168.898 C 186.007 169.064,186.491 169.200,187.010 169.200 C 187.528 169.200,188.064 169.380,188.200 169.600 C 188.336 169.820,188.977 170.000,189.624 170.000 C 190.271 170.000,190.800 170.180,190.800 170.400 C 190.800 170.620,191.574 170.800,192.520 170.800 C 193.466 170.800,194.430 170.990,194.663 171.223 C 195.444 172.004,209.200 171.187,209.200 170.360 C 209.200 170.162,209.729 170.000,210.376 170.000 C 211.023 170.000,211.664 169.820,211.800 169.600 C 211.936 169.380,212.472 169.200,212.990 169.200 C 213.509 169.200,213.993 169.064,214.067 168.898 C 214.140 168.732,215.370 168.007,216.800 167.287 C 220.469 165.440,226.365 160.334,228.680 156.999 C 229.979 155.128,233.200 148.619,233.200 147.866 C 233.200 147.494,233.358 146.877,233.551 146.495 C 234.615 144.389,234.884 142.301,234.878 136.207 C 234.874 132.630,234.693 129.365,234.475 128.952 C 234.256 128.538,233.860 127.390,233.593 126.400 C 232.696 123.067,230.665 118.890,228.440 115.800 C 226.996 113.794,222.233 108.800,221.765 108.800 C 221.628 108.800,221.008 108.373,220.389 107.852 C 218.917 106.614,213.491 103.881,211.200 103.225 C 210.210 102.941,209.040 102.559,208.600 102.375 C 206.898 101.666,197.734 101.056,196.600 101.576 M194.772 109.240 C 194.347 109.836,194.000 110.521,194.000 110.762 C 194.000 111.003,193.854 111.200,193.675 111.200 C 193.496 111.200,193.102 111.830,192.800 112.600 C 192.498 113.370,192.138 114.000,192.000 114.000 C 191.862 114.000,191.502 114.630,191.200 115.400 C 190.898 116.170,190.504 116.800,190.325 116.800 C 190.146 116.800,190.000 116.957,190.000 117.149 C 190.000 117.446,188.868 119.509,184.787 126.645 C 184.396 127.330,183.833 128.320,183.538 128.845 C 183.242 129.370,182.910 129.890,182.800 130.000 C 182.690 130.110,182.226 130.920,181.770 131.800 C 180.694 133.873,179.851 135.349,179.599 135.600 C 179.489 135.710,179.129 136.340,178.800 137.000 C 178.471 137.660,178.111 138.290,178.001 138.400 C 177.890 138.510,177.575 139.005,177.300 139.500 C 177.025 139.995,176.575 140.805,176.300 141.300 C 176.025 141.795,175.706 142.290,175.590 142.400 C 175.475 142.510,174.937 143.452,174.394 144.494 C 173.009 147.153,171.600 147.537,171.600 145.256 C 171.600 144.653,171.437 143.989,171.239 143.780 C 170.075 142.556,170.073 130.238,171.237 129.020 C 171.437 128.811,171.600 128.243,171.600 127.758 C 171.600 127.273,171.943 126.184,172.363 125.338 C 172.782 124.492,173.416 123.133,173.772 122.319 C 174.129 121.504,174.646 120.604,174.923 120.319 C 175.200 120.033,175.863 119.170,176.396 118.400 C 178.285 115.673,185.019 110.000,186.366 110.000 C 186.591 110.000,187.417 109.640,188.200 109.200 C 188.983 108.760,189.943 108.400,190.332 108.400 C 190.721 108.400,191.211 108.232,191.420 108.027 C 191.947 107.509,194.940 107.316,195.272 107.778 C 195.421 107.986,195.196 108.644,194.772 109.240 M208.580 108.041 C 208.789 108.238,209.279 108.400,209.668 108.400 C 210.057 108.400,211.017 108.760,211.800 109.200 C 212.583 109.640,213.409 110.000,213.634 110.000 C 215.089 110.000,221.553 115.448,223.602 118.400 C 224.136 119.170,224.800 120.033,225.077 120.319 C 225.354 120.604,225.871 121.504,226.228 122.319 C 226.584 123.133,227.218 124.492,227.637 125.338 C 228.057 126.184,228.400 127.273,228.400 127.758 C 228.400 128.243,228.563 128.811,228.763 129.020 C 229.927 130.238,229.925 142.556,228.761 143.780 C 228.563 143.989,228.400 144.653,228.400 145.256 C 228.400 146.951,226.774 147.268,226.264 145.672 C 226.052 145.007,224.787 142.787,224.400 142.400 C 224.290 142.290,223.975 141.795,223.700 141.300 C 223.425 140.805,222.975 139.995,222.700 139.500 C 222.425 139.005,222.110 138.510,221.999 138.400 C 221.889 138.290,221.535 137.660,221.212 137.000 C 220.889 136.340,220.163 135.080,219.600 134.200 C 219.037 133.320,218.311 132.060,217.988 131.400 C 217.665 130.740,217.311 130.110,217.201 130.000 C 217.002 129.802,216.779 129.420,214.995 126.232 C 214.493 125.334,213.164 123.011,212.041 121.068 C 210.919 119.126,210.000 117.371,210.000 117.168 C 210.000 116.966,209.854 116.800,209.675 116.800 C 209.496 116.800,209.102 116.170,208.800 115.400 C 208.498 114.630,208.138 114.000,208.000 114.000 C 207.862 114.000,207.502 113.370,207.200 112.600 C 206.898 111.830,206.504 111.200,206.325 111.200 C 206.146 111.200,205.996 110.975,205.991 110.700 C 205.986 110.425,205.645 109.761,205.233 109.225 C 204.820 108.688,204.558 108.054,204.650 107.815 C 204.842 107.313,208.002 107.494,208.580 108.041 M200.600 112.306 C 200.820 112.468,201.246 113.036,201.546 113.568 C 201.847 114.101,202.503 115.271,203.005 116.168 C 203.507 117.066,204.836 119.389,205.959 121.332 C 207.081 123.274,208.000 125.029,208.000 125.232 C 208.000 125.434,208.180 125.600,208.400 125.600 C 208.620 125.600,208.800 125.960,208.800 126.400 C 208.800 126.840,208.980 127.200,209.200 127.200 C 209.420 127.200,209.600 127.470,209.600 127.800 C 209.600 128.130,209.746 128.400,209.925 128.400 C 210.104 128.400,210.498 129.030,210.800 129.800 C 211.102 130.570,211.475 131.200,211.628 131.200 C 211.781 131.200,212.007 131.515,212.129 131.900 C 212.346 132.587,213.605 134.806,214.001 135.200 C 214.111 135.310,214.471 135.940,214.800 136.600 C 215.129 137.260,215.489 137.890,215.599 138.000 C 215.710 138.110,216.042 138.630,216.338 139.155 C 217.720 141.611,218.382 142.759,219.583 144.783 C 220.295 145.984,220.973 147.559,221.091 148.283 L 221.305 149.600 200.052 149.600 C 175.033 149.600,177.155 150.384,181.649 142.800 C 182.105 142.030,182.866 140.680,183.339 139.800 C 183.813 138.920,184.290 138.110,184.400 138.000 C 184.510 137.890,184.842 137.370,185.138 136.845 C 185.433 136.320,186.001 135.310,186.400 134.600 C 186.799 133.890,187.367 132.880,187.662 132.355 C 187.958 131.830,188.290 131.310,188.400 131.200 C 188.796 130.804,190.054 128.585,190.271 127.900 C 190.393 127.515,190.652 127.200,190.847 127.200 C 191.041 127.200,191.200 126.840,191.200 126.400 C 191.200 125.960,191.359 125.600,191.553 125.600 C 191.748 125.600,192.010 125.285,192.136 124.900 C 192.262 124.515,192.848 123.390,193.439 122.400 C 194.030 121.410,194.964 119.799,195.514 118.821 C 196.064 117.843,197.028 116.170,197.657 115.103 C 198.286 114.037,198.800 113.008,198.800 112.816 C 198.800 112.624,199.025 112.376,199.300 112.265 C 200.020 111.974,200.154 111.979,200.600 112.306 M84.887 129.256 C 86.709 130.386,89.683 132.276,91.496 133.456 C 93.309 134.635,94.974 135.600,95.196 135.600 C 95.418 135.600,95.600 135.736,95.600 135.902 C 95.600 136.069,96.140 136.444,96.800 136.736 C 98.614 137.539,98.083 139.740,95.519 142.047 C 95.124 142.403,94.800 142.871,94.800 143.088 C 94.800 143.304,94.260 144.046,93.600 144.737 C 92.940 145.428,92.400 146.174,92.400 146.396 C 92.400 146.618,92.220 146.800,92.000 146.800 C 91.780 146.800,91.600 146.988,91.600 147.218 C 91.600 147.448,91.128 148.108,90.552 148.685 L 89.504 149.733 88.761 148.766 C 88.352 148.235,88.014 147.573,88.009 147.295 C 88.004 147.017,87.792 146.387,87.538 145.895 C 86.567 144.018,86.400 143.593,86.400 143.005 C 86.400 142.672,86.220 142.400,86.000 142.400 C 85.780 142.400,85.600 142.128,85.600 141.795 C 85.600 141.462,85.441 140.877,85.247 140.495 C 85.052 140.113,84.671 139.260,84.400 138.600 C 84.129 137.940,83.748 137.087,83.553 136.705 C 83.359 136.323,83.200 135.736,83.200 135.400 C 83.200 135.064,83.041 134.477,82.847 134.095 C 81.685 131.810,80.400 127.929,80.663 127.500 C 80.998 126.954,81.543 127.181,84.887 129.256 M319.337 127.500 C 319.600 127.929,318.315 131.810,317.153 134.095 C 316.959 134.477,316.800 135.064,316.800 135.400 C 316.800 135.736,316.641 136.323,316.447 136.705 C 316.252 137.087,315.871 137.940,315.600 138.600 C 315.329 139.260,314.948 140.113,314.753 140.495 C 314.559 140.877,314.400 141.462,314.400 141.795 C 314.400 142.128,314.220 142.400,314.000 142.400 C 313.780 142.400,313.600 142.672,313.600 143.005 C 313.600 143.338,313.441 143.923,313.247 144.305 C 312.904 144.978,312.659 145.550,311.536 148.300 C 311.244 149.015,310.860 149.600,310.684 149.600 C 310.215 149.600,308.400 147.707,308.400 147.218 C 308.400 146.988,308.220 146.800,308.000 146.800 C 307.780 146.800,307.600 146.618,307.600 146.396 C 307.600 146.174,307.060 145.428,306.400 144.737 C 305.740 144.046,305.200 143.304,305.200 143.088 C 305.200 142.871,304.876 142.403,304.481 142.047 C 301.917 139.740,301.386 137.539,303.200 136.736 C 303.860 136.444,304.400 136.069,304.400 135.902 C 304.400 135.736,304.590 135.600,304.822 135.600 C 305.054 135.600,306.304 134.880,307.600 134.000 C 308.896 133.120,310.064 132.400,310.195 132.400 C 310.326 132.400,310.651 132.213,310.917 131.985 C 313.397 129.855,318.963 126.890,319.337 127.500 M196.872 132.736 C 196.172 133.360,195.600 134.160,195.600 134.512 C 195.600 134.864,195.420 135.264,195.200 135.400 C 194.106 136.076,195.756 139.877,197.501 140.700 C 198.763 141.296,202.400 141.370,202.400 140.800 C 202.400 140.580,202.637 140.400,202.926 140.400 C 204.088 140.400,205.743 135.983,204.800 135.400 C 204.580 135.264,204.400 134.864,204.400 134.512 C 204.400 133.191,201.996 131.600,200.000 131.600 C 198.527 131.600,197.882 131.834,196.872 132.736 M139.252 137.737 C 139.007 138.032,138.925 138.392,139.070 138.537 C 139.215 138.682,139.123 138.800,138.867 138.800 C 138.204 138.800,138.289 140.063,139.023 141.111 C 140.415 143.099,143.600 141.984,143.600 139.509 C 143.600 137.374,140.576 136.142,139.252 137.737 M256.880 137.680 C 256.218 138.342,256.277 140.734,256.971 141.429 C 258.510 142.967,261.600 141.595,261.600 139.373 C 261.600 137.589,258.193 136.367,256.880 137.680 M125.369 148.514 C 122.912 149.744,123.767 153.600,126.496 153.600 C 128.947 153.600,129.985 150.689,128.142 148.981 C 127.005 147.927,126.658 147.869,125.369 148.514 M271.858 148.981 C 270.566 150.179,270.493 151.683,271.675 152.784 C 273.829 154.791,277.727 151.838,275.879 149.600 C 274.473 147.896,273.235 147.706,271.858 148.981 M222.400 155.660 C 222.400 156.165,218.582 159.937,217.362 160.638 C 216.943 160.878,216.159 161.328,215.620 161.638 C 215.082 161.947,214.283 162.515,213.845 162.900 C 213.407 163.285,212.633 163.600,212.125 163.600 C 211.616 163.600,211.200 163.780,211.200 164.000 C 211.200 164.220,210.780 164.400,210.267 164.400 C 209.753 164.400,209.210 164.523,209.059 164.674 C 207.847 165.887,194.080 166.701,193.400 165.600 C 193.264 165.380,192.724 165.200,192.200 165.200 C 191.676 165.200,191.136 165.020,191.000 164.800 C 190.864 164.580,190.313 164.400,189.776 164.400 C 189.239 164.400,188.800 164.220,188.800 164.000 C 188.800 163.780,188.384 163.600,187.875 163.600 C 187.367 163.600,186.564 163.240,186.092 162.800 C 185.620 162.360,185.123 162.000,184.989 162.000 C 183.875 162.000,177.378 156.283,177.771 155.647 C 178.172 154.999,222.400 155.011,222.400 155.660 M111.965 163.250 C 111.129 164.423,111.114 164.563,111.709 165.550 C 113.012 167.706,116.749 166.999,116.787 164.589 C 116.829 161.926,113.555 161.017,111.965 163.250 M283.823 162.889 C 282.376 164.955,283.482 166.913,285.990 166.725 C 287.287 166.628,287.797 166.367,288.291 165.550 C 289.766 163.106,285.465 160.545,283.823 162.889 M138.900 166.598 C 136.794 168.991,139.613 171.600,144.305 171.600 C 145.431 171.600,146.464 171.780,146.600 172.000 C 146.736 172.220,147.379 172.400,148.029 172.400 C 148.679 172.400,149.523 172.559,149.905 172.753 C 150.581 173.097,151.866 173.637,153.700 174.349 C 155.061 174.878,158.573 176.561,158.800 176.795 C 159.000 177.000,160.290 177.763,161.804 178.571 C 164.563 180.044,171.004 186.070,174.019 190.000 C 174.779 190.990,175.535 191.860,175.700 191.933 C 175.865 192.007,176.000 192.286,176.000 192.555 C 176.000 193.625,178.683 196.000,179.892 196.000 C 188.536 196.000,172.219 176.837,157.800 170.053 C 156.700 169.536,155.487 168.952,155.105 168.756 C 154.723 168.560,154.136 168.400,153.800 168.400 C 153.464 168.400,152.877 168.242,152.495 168.049 C 151.174 167.382,148.938 166.800,147.695 166.800 C 147.009 166.800,146.336 166.620,146.200 166.400 C 145.801 165.755,139.491 165.927,138.900 166.598 M253.800 166.400 C 253.664 166.620,252.991 166.800,252.305 166.800 C 251.167 166.800,249.507 167.212,247.400 168.016 C 246.960 168.184,245.520 168.734,244.200 169.237 C 241.672 170.201,238.914 171.615,237.138 172.857 C 236.554 173.266,235.941 173.600,235.775 173.600 C 234.187 173.600,222.859 184.663,219.700 189.299 C 216.846 193.487,217.025 196.000,220.178 196.000 C 221.287 196.000,224.000 193.594,224.000 192.610 C 224.000 192.372,224.360 191.917,224.800 191.600 C 225.240 191.283,225.600 190.837,225.600 190.610 C 225.600 188.865,237.349 178.403,240.500 177.342 C 240.885 177.213,241.200 176.948,241.200 176.753 C 241.200 176.559,241.560 176.400,242.000 176.400 C 242.440 176.400,242.800 176.264,242.800 176.098 C 242.800 175.828,243.562 175.452,246.200 174.420 C 247.720 173.825,249.403 173.105,250.095 172.753 C 250.477 172.559,251.321 172.400,251.971 172.400 C 252.621 172.400,253.264 172.220,253.400 172.000 C 253.536 171.780,254.582 171.597,255.724 171.594 C 257.652 171.588,259.915 171.032,261.100 170.273 C 261.782 169.836,261.733 167.276,261.029 166.571 C 260.356 165.899,254.200 165.753,253.800 166.400 M102.488 178.100 C 101.395 179.433,101.950 182.376,103.308 182.446 C 105.863 182.578,106.800 181.921,106.800 180.000 C 106.800 177.905,103.750 176.561,102.488 178.100 M293.700 178.198 C 292.170 179.936,293.497 182.400,295.964 182.400 C 297.677 182.400,298.347 181.432,298.042 179.400 C 297.777 177.635,294.898 176.838,293.700 178.198 M147.420 193.173 C 147.629 193.379,148.520 193.604,149.400 193.673 L 151.000 193.800 151.119 196.994 C 151.215 199.599,151.394 200.355,152.088 201.094 C 153.889 203.011,156.800 201.565,156.800 198.754 C 156.800 196.718,157.235 196.581,159.295 197.971 C 161.295 199.321,166.000 204.283,166.000 205.043 C 166.000 205.171,166.361 205.783,166.801 206.402 C 167.954 208.021,167.493 208.800,165.381 208.800 C 164.427 208.800,163.536 208.980,163.400 209.200 C 163.260 209.427,161.270 209.600,158.800 209.600 C 156.330 209.600,154.340 209.427,154.200 209.200 C 154.064 208.980,153.522 208.800,152.995 208.800 C 149.309 208.800,141.258 203.429,138.005 198.800 C 137.464 198.030,136.702 197.051,136.311 196.625 C 134.825 195.004,135.823 193.606,138.474 193.594 C 139.203 193.591,140.070 193.413,140.400 193.200 C 141.169 192.703,146.919 192.681,147.420 193.173 M261.402 193.476 C 264.555 194.036,265.222 194.953,263.689 196.625 C 263.298 197.051,262.536 198.030,261.995 198.800 C 259.214 202.757,252.141 208.000,249.583 208.000 C 249.178 208.000,248.736 208.180,248.600 208.400 C 248.464 208.620,247.834 208.800,247.200 208.800 C 246.566 208.800,245.936 208.980,245.800 209.200 C 245.660 209.427,243.670 209.600,241.200 209.600 C 238.730 209.600,236.740 209.427,236.600 209.200 C 236.464 208.980,235.573 208.800,234.619 208.800 C 232.507 208.800,232.046 208.021,233.199 206.402 C 233.639 205.783,234.000 205.171,234.000 205.043 C 234.000 204.229,238.832 199.193,240.784 197.972 C 242.865 196.671,243.200 196.761,243.200 198.621 C 243.200 201.465,245.947 202.940,247.874 201.130 C 248.664 200.388,248.800 199.866,248.800 197.563 C 248.800 193.930,248.968 193.600,250.819 193.600 C 251.663 193.600,252.472 193.407,252.617 193.172 C 252.909 192.700,258.022 192.877,261.402 193.476 M95.280 195.280 C 93.783 196.777,94.996 199.600,97.136 199.600 C 99.296 199.600,100.521 196.863,99.029 195.371 C 98.334 194.677,95.942 194.618,95.280 195.280 M300.900 195.398 C 299.506 196.982,300.847 199.600,303.051 199.600 C 304.619 199.600,305.200 198.951,305.200 197.200 C 305.200 194.950,302.347 193.755,300.900 195.398 M197.700 197.483 C 197.009 198.970,197.063 199.332,198.126 200.330 C 200.385 202.453,203.592 200.265,202.300 197.483 C 201.866 196.548,201.564 196.406,200.000 196.406 C 198.436 196.406,198.134 196.548,197.700 197.483 M130.900 210.610 C 129.380 212.233,130.333 214.400,132.566 214.400 C 134.203 214.400,134.800 213.776,134.800 212.064 C 134.800 209.662,132.567 208.830,130.900 210.610 M265.900 210.157 C 265.088 210.773,264.947 213.187,265.680 213.920 C 266.967 215.207,270.000 213.857,270.000 211.996 C 270.000 210.416,267.208 209.164,265.900 210.157 M91.023 213.689 C 89.756 215.498,90.797 217.600,92.961 217.600 C 95.199 217.600,96.384 215.266,95.043 213.500 C 94.248 212.452,91.809 212.567,91.023 213.689 M304.896 213.595 C 303.006 216.621,307.129 219.308,309.200 216.400 L 310.054 215.200 309.200 214.000 C 308.138 212.509,305.717 212.281,304.896 213.595 M198.100 216.210 C 196.920 217.470,196.963 218.454,198.255 219.745 C 200.721 222.212,204.219 218.838,201.928 216.203 C 200.826 214.936,199.290 214.939,198.100 216.210 M138.182 217.782 C 136.001 219.962,137.484 223.200,140.664 223.200 C 142.714 223.200,143.600 222.276,143.600 220.138 C 143.600 217.082,140.311 215.652,138.182 217.782 M257.270 217.726 C 256.093 218.978,256.096 221.286,257.275 222.384 C 258.493 223.518,261.051 223.494,262.053 222.339 C 264.715 219.270,260.048 214.769,257.270 217.726 M148.757 222.599 C 146.243 223.965,145.729 226.626,147.556 228.815 C 150.771 232.666,157.274 228.337,154.541 224.165 C 153.241 222.182,150.760 221.510,148.757 222.599 M247.157 222.599 C 243.945 224.345,244.189 228.587,247.583 229.993 C 251.273 231.521,255.061 227.401,252.941 224.165 C 251.641 222.182,249.160 221.510,247.157 222.599 M112.354 235.523 C 112.709 235.920,113.399 236.517,113.886 236.851 C 117.795 239.522,126.800 248.626,126.800 249.907 C 126.800 250.541,126.089 250.604,118.500 250.650 C 109.629 250.703,106.021 251.086,99.000 252.723 C 95.771 253.475,90.888 255.334,86.496 257.481 C 84.020 258.692,81.756 259.592,81.465 259.480 C 80.737 259.201,77.949 250.395,77.324 246.400 C 77.204 245.630,76.926 244.777,76.708 244.505 C 76.197 243.869,76.603 242.800,77.354 242.800 C 77.673 242.800,77.993 242.663,78.067 242.496 C 78.140 242.329,79.820 241.411,81.800 240.455 C 83.780 239.500,85.713 238.557,86.095 238.359 C 86.477 238.162,87.141 238.000,87.571 238.000 C 88.001 238.000,88.464 237.820,88.600 237.600 C 88.736 237.380,89.276 237.200,89.800 237.200 C 90.324 237.200,90.864 237.020,91.000 236.800 C 91.136 236.580,91.741 236.400,92.344 236.400 C 92.947 236.400,93.611 236.237,93.820 236.037 C 95.226 234.693,111.214 234.250,112.354 235.523 M301.674 235.244 C 302.044 235.440,303.159 235.600,304.150 235.600 C 305.142 235.600,306.064 235.780,306.200 236.000 C 306.336 236.220,306.966 236.400,307.600 236.400 C 308.234 236.400,308.864 236.580,309.000 236.800 C 309.136 237.020,309.676 237.200,310.200 237.200 C 310.724 237.200,311.264 237.380,311.400 237.600 C 311.536 237.820,311.999 238.000,312.429 238.000 C 312.859 238.000,313.523 238.162,313.905 238.360 C 314.287 238.558,316.542 239.667,318.917 240.825 C 323.691 243.153,323.867 243.302,323.296 244.538 C 323.078 245.012,322.683 246.558,322.419 247.973 C 321.749 251.560,319.150 259.244,318.525 259.484 C 318.240 259.593,315.980 258.692,313.504 257.481 C 309.102 255.329,304.207 253.467,301.000 252.726 C 293.545 251.003,290.671 250.697,281.500 250.646 C 273.910 250.604,273.200 250.541,273.200 249.907 C 273.200 248.626,282.205 239.522,286.114 236.851 C 286.601 236.517,287.270 235.948,287.600 235.585 C 287.930 235.222,288.432 234.850,288.715 234.758 C 289.648 234.454,300.985 234.879,301.674 235.244 M197.859 235.766 C 196.543 237.774,197.738 239.735,200.152 239.529 C 203.607 239.233,203.551 235.145,200.087 234.880 C 198.781 234.780,198.408 234.928,197.859 235.766 M130.190 256.608 C 132.721 256.901,133.519 257.466,134.485 259.646 C 134.765 260.281,135.131 260.800,135.298 260.800 C 135.464 260.800,135.600 260.975,135.600 261.188 C 135.600 261.402,136.416 262.957,137.412 264.643 C 139.593 268.331,139.742 268.137,134.467 268.465 C 120.981 269.304,110.531 271.351,104.462 274.343 C 103.506 274.814,102.381 275.200,101.962 275.200 C 101.543 275.200,101.200 275.380,101.200 275.600 C 101.200 275.820,100.840 276.000,100.400 276.000 C 99.960 276.000,99.599 276.135,99.597 276.300 C 99.595 276.465,99.190 276.799,98.697 277.041 C 98.204 277.284,96.795 278.024,95.567 278.685 C 93.387 279.858,92.002 279.808,91.999 278.556 C 91.999 278.360,91.459 277.570,90.800 276.800 C 90.141 276.030,89.601 275.241,89.601 275.047 C 89.600 274.853,89.271 274.403,88.870 274.047 C 88.468 273.691,87.884 272.815,87.572 272.100 C 87.260 271.385,86.902 270.800,86.777 270.800 C 86.652 270.800,86.302 270.170,86.000 269.400 C 85.698 268.630,85.348 268.000,85.223 268.000 C 84.823 268.000,83.915 265.596,84.123 265.089 C 84.234 264.820,86.096 263.727,88.262 262.660 C 90.428 261.593,92.513 260.558,92.895 260.360 C 93.277 260.162,93.941 260.000,94.371 260.000 C 94.801 260.000,95.264 259.820,95.400 259.600 C 95.536 259.380,96.076 259.200,96.600 259.200 C 97.124 259.200,97.664 259.020,97.800 258.800 C 97.936 258.580,98.476 258.400,99.000 258.400 C 99.524 258.400,100.064 258.220,100.200 258.000 C 100.336 257.780,101.146 257.600,102.000 257.600 C 102.854 257.600,103.664 257.420,103.800 257.200 C 103.936 256.980,105.016 256.800,106.200 256.800 C 107.384 256.800,108.468 256.614,108.608 256.386 C 108.886 255.937,125.900 256.112,130.190 256.608 M291.400 256.400 C 291.536 256.620,292.616 256.800,293.800 256.800 C 294.984 256.800,296.064 256.980,296.200 257.200 C 296.336 257.420,297.146 257.600,298.000 257.600 C 298.854 257.600,299.664 257.780,299.800 258.000 C 299.936 258.220,300.476 258.400,301.000 258.400 C 301.524 258.400,302.064 258.580,302.200 258.800 C 302.336 259.020,302.876 259.200,303.400 259.200 C 303.924 259.200,304.464 259.380,304.600 259.600 C 304.736 259.820,305.225 260.000,305.687 260.000 C 306.745 260.000,315.621 264.430,315.883 265.089 C 316.085 265.599,315.174 268.000,314.777 268.000 C 314.652 268.000,314.302 268.630,314.000 269.400 C 313.698 270.170,313.348 270.800,313.223 270.800 C 313.098 270.800,312.740 271.385,312.428 272.100 C 312.116 272.815,311.576 273.670,311.228 274.000 C 310.879 274.330,310.340 275.095,310.030 275.700 C 309.719 276.305,309.315 276.800,309.132 276.800 C 308.950 276.800,308.800 277.025,308.800 277.300 C 308.799 277.575,308.371 278.298,307.848 278.906 L 306.897 280.011 305.149 279.106 C 304.187 278.608,303.310 278.096,303.200 277.968 C 303.090 277.840,302.415 277.481,301.700 277.170 C 300.985 276.859,300.400 276.469,300.400 276.302 C 300.400 276.136,300.040 276.000,299.600 276.000 C 299.160 276.000,298.800 275.820,298.800 275.600 C 298.800 275.380,298.350 275.200,297.800 275.200 C 297.250 275.200,296.800 275.020,296.800 274.800 C 296.800 274.580,296.528 274.400,296.195 274.400 C 295.862 274.400,295.277 274.241,294.895 274.047 C 289.729 271.419,278.399 269.265,265.533 268.465 C 260.198 268.134,260.344 268.391,262.981 263.996 C 264.201 261.962,265.200 260.215,265.200 260.113 C 265.200 258.679,267.564 256.816,269.400 256.802 C 270.500 256.794,271.670 256.613,272.000 256.400 C 272.816 255.873,291.074 255.873,291.400 256.400 M204.600 259.600 C 204.736 259.820,205.829 260.000,207.029 260.000 C 208.229 260.000,209.523 260.158,209.905 260.351 C 210.959 260.883,213.374 261.600,214.114 261.600 C 215.655 261.600,215.579 263.932,213.997 265.200 C 213.860 265.310,213.141 266.300,212.400 267.400 C 211.659 268.500,210.942 269.490,210.807 269.600 C 210.672 269.710,210.126 270.430,209.594 271.200 C 209.062 271.970,208.395 272.838,208.113 273.129 C 207.831 273.419,207.600 273.811,207.600 274.000 C 207.600 274.189,207.369 274.581,207.087 274.871 C 206.804 275.162,205.502 276.930,204.192 278.800 C 199.886 284.950,200.259 284.792,197.846 281.500 C 196.838 280.125,195.729 278.640,195.380 278.200 C 195.031 277.760,194.450 276.905,194.087 276.300 C 193.724 275.695,193.286 275.200,193.114 275.200 C 192.941 275.200,192.800 274.975,192.800 274.700 C 192.799 274.425,192.334 273.660,191.765 273.000 C 191.196 272.340,190.437 271.305,190.079 270.700 C 189.721 270.095,189.286 269.600,189.114 269.600 C 188.941 269.600,188.800 269.330,188.800 269.000 C 188.800 268.670,188.659 268.400,188.486 268.400 C 188.314 268.400,187.857 267.867,187.472 267.215 C 187.087 266.563,186.546 265.798,186.270 265.515 C 184.203 263.398,184.210 261.881,186.289 261.480 C 186.900 261.362,188.120 261.049,189.000 260.784 C 189.880 260.518,191.590 260.218,192.800 260.115 C 194.010 260.013,195.171 259.765,195.380 259.565 C 195.900 259.065,204.289 259.097,204.600 259.600 M142.249 274.700 C 142.542 275.616,143.203 277.223,143.647 278.095 C 143.841 278.477,144.000 279.152,144.000 279.595 C 144.000 280.038,144.180 280.400,144.400 280.400 C 144.620 280.400,144.800 280.839,144.800 281.376 C 144.800 281.913,144.980 282.464,145.200 282.600 C 145.420 282.736,145.600 283.287,145.600 283.824 C 145.600 284.361,145.780 284.800,146.000 284.800 C 146.220 284.800,146.400 285.045,146.400 285.344 C 146.400 285.860,148.757 290.777,149.208 291.200 C 149.325 291.310,150.042 292.210,150.801 293.200 C 152.868 295.894,158.063 300.400,159.103 300.400 C 159.340 300.400,159.593 300.535,159.667 300.700 C 159.740 300.865,160.700 301.425,161.800 301.944 C 162.900 302.463,164.113 303.048,164.495 303.244 C 164.877 303.440,165.554 303.600,166.000 303.600 C 166.446 303.600,167.123 303.767,167.505 303.971 C 167.887 304.175,168.508 304.436,168.884 304.552 C 169.260 304.668,170.034 305.684,170.605 306.810 C 173.095 311.724,178.183 317.274,182.330 319.600 C 182.919 319.930,183.490 320.292,183.600 320.405 C 183.710 320.518,184.700 321.033,185.800 321.549 C 186.900 322.065,188.113 322.648,188.495 322.844 C 188.877 323.040,189.541 323.200,189.971 323.200 C 190.401 323.200,190.864 323.380,191.000 323.600 C 191.136 323.820,191.856 324.000,192.600 324.000 C 193.344 324.000,194.064 324.180,194.200 324.400 C 194.346 324.636,196.730 324.800,200.000 324.800 C 203.270 324.800,205.654 324.636,205.800 324.400 C 205.936 324.180,206.757 324.000,207.624 324.000 C 208.491 324.000,209.200 323.820,209.200 323.600 C 209.200 323.380,209.562 323.200,210.005 323.200 C 210.448 323.200,211.123 323.040,211.505 322.844 C 211.887 322.648,213.100 322.065,214.200 321.549 C 215.300 321.033,216.290 320.518,216.400 320.405 C 216.510 320.292,217.077 319.930,217.660 319.600 C 220.264 318.126,226.400 312.516,226.400 311.609 C 226.400 311.384,226.580 311.200,226.800 311.200 C 227.020 311.200,227.200 310.945,227.200 310.633 C 227.200 310.322,227.358 310.007,227.550 309.933 C 227.743 309.860,228.469 308.667,229.165 307.282 C 229.861 305.897,230.738 304.668,231.115 304.552 C 231.492 304.437,232.113 304.175,232.495 303.971 C 232.877 303.767,233.554 303.600,234.000 303.600 C 234.446 303.600,235.123 303.440,235.505 303.244 C 235.887 303.048,237.100 302.463,238.200 301.944 C 239.300 301.425,240.260 300.865,240.333 300.700 C 240.407 300.535,240.660 300.400,240.897 300.400 C 242.019 300.400,246.906 296.156,249.190 293.199 C 249.954 292.210,250.678 291.310,250.799 291.200 C 251.322 290.725,254.406 284.135,254.403 283.500 C 254.401 283.115,254.580 282.800,254.800 282.800 C 255.020 282.800,255.200 282.260,255.200 281.600 C 255.200 280.940,255.380 280.400,255.600 280.400 C 255.820 280.400,256.000 280.038,256.000 279.595 C 256.000 279.152,256.159 278.477,256.353 278.095 C 256.798 277.221,257.457 275.619,257.758 274.683 C 258.088 273.655,277.883 274.167,278.980 275.231 C 279.189 275.434,280.033 275.600,280.856 275.600 C 281.679 275.600,282.464 275.780,282.600 276.000 C 282.736 276.220,283.557 276.400,284.424 276.400 C 285.291 276.400,286.000 276.580,286.000 276.800 C 286.000 277.020,286.373 277.200,286.829 277.200 C 288.301 277.200,293.681 279.179,298.300 281.420 C 303.135 283.765,303.690 284.468,302.096 286.225 C 301.709 286.651,300.770 287.810,300.008 288.800 C 299.246 289.790,298.303 290.891,297.911 291.247 C 297.520 291.603,297.200 292.064,297.200 292.271 C 297.200 292.479,296.876 292.998,296.481 293.425 C 296.085 293.851,294.972 295.370,294.008 296.800 C 293.044 298.230,292.108 299.460,291.928 299.533 C 291.747 299.607,291.600 299.817,291.600 300.001 C 291.600 300.185,290.636 301.925,289.458 303.868 C 288.279 305.811,286.607 308.750,285.741 310.400 C 284.126 313.479,282.768 314.396,282.485 312.600 C 282.416 312.160,282.203 311.440,282.012 311.000 C 281.549 309.934,281.190 307.991,280.825 304.591 C 280.496 301.524,279.428 298.800,278.554 298.800 C 278.249 298.800,278.000 298.620,278.000 298.400 C 278.000 298.180,277.190 298.000,276.200 298.000 C 275.210 298.000,274.400 298.180,274.400 298.400 C 274.400 298.620,274.169 298.800,273.886 298.800 C 272.962 298.800,272.087 300.932,271.424 304.800 C 271.065 306.890,270.573 309.230,270.330 310.000 C 269.407 312.924,269.110 313.824,268.810 314.600 C 268.212 316.150,266.705 319.412,266.131 320.400 C 265.812 320.950,265.451 321.715,265.329 322.100 C 265.207 322.485,264.948 322.800,264.753 322.800 C 264.559 322.800,264.400 323.160,264.400 323.600 C 264.400 324.040,264.220 324.400,264.000 324.400 C 263.780 324.400,263.600 324.625,263.599 324.900 C 263.599 325.175,263.059 326.030,262.400 326.800 C 261.741 327.570,261.201 328.425,261.201 328.700 C 261.200 328.975,261.062 329.200,260.894 329.200 C 260.726 329.200,260.144 329.920,259.600 330.800 C 259.056 331.680,258.474 332.400,258.306 332.400 C 258.138 332.400,257.998 332.625,257.995 332.900 C 257.992 333.175,257.629 333.850,257.189 334.400 C 256.749 334.950,255.473 336.570,254.353 338.000 C 253.233 339.430,251.930 341.053,251.458 341.606 C 250.986 342.159,250.108 343.268,249.506 344.071 C 248.904 344.874,248.184 345.776,247.906 346.075 C 247.628 346.375,246.772 347.425,246.006 348.410 C 244.420 350.445,243.786 351.222,242.476 352.734 C 239.664 355.978,232.852 366.441,230.974 370.400 C 230.400 371.610,229.766 372.913,229.565 373.295 C 229.364 373.677,229.200 374.262,229.200 374.595 C 229.200 374.928,229.020 375.200,228.800 375.200 C 228.580 375.200,228.400 375.740,228.400 376.400 C 228.400 377.060,228.220 377.600,228.000 377.600 C 227.780 377.600,227.600 378.129,227.600 378.776 C 227.600 379.423,227.420 380.064,227.200 380.200 C 226.980 380.336,226.800 381.309,226.800 382.362 C 226.800 386.567,226.006 386.328,219.999 380.314 C 217.080 377.391,214.287 374.370,213.792 373.600 C 213.298 372.830,212.434 371.673,211.873 371.029 C 211.312 370.385,210.436 369.035,209.927 368.029 C 209.417 367.023,208.865 366.140,208.700 366.067 C 208.535 365.993,208.400 365.678,208.400 365.367 C 208.400 365.055,208.220 364.800,208.000 364.800 C 207.780 364.800,207.600 364.350,207.600 363.800 C 207.600 363.250,207.420 362.800,207.200 362.800 C 206.980 362.800,206.800 362.528,206.800 362.195 C 206.800 361.862,206.641 361.277,206.447 360.895 C 205.182 358.409,204.772 356.748,204.520 353.098 C 204.031 345.996,195.600 345.910,195.600 353.007 C 195.600 354.407,195.420 355.664,195.200 355.800 C 194.980 355.936,194.800 356.579,194.800 357.229 C 194.800 358.365,194.684 358.718,193.662 360.695 C 193.408 361.187,193.200 361.862,193.200 362.195 C 193.200 362.528,193.020 362.800,192.800 362.800 C 192.580 362.800,192.400 363.250,192.400 363.800 C 192.400 364.350,192.241 364.800,192.047 364.800 C 191.852 364.800,191.590 365.115,191.464 365.500 C 191.149 366.465,189.335 369.511,188.072 371.200 C 187.495 371.970,186.895 372.780,186.737 373.000 C 185.710 374.432,182.409 377.972,178.823 381.488 C 174.044 386.173,173.200 386.304,173.200 382.362 C 173.200 381.309,173.020 380.336,172.800 380.200 C 172.580 380.064,172.400 379.423,172.400 378.776 C 172.400 378.129,172.220 377.600,172.000 377.600 C 171.780 377.600,171.600 377.060,171.600 376.400 C 171.600 375.740,171.420 375.200,171.200 375.200 C 170.980 375.200,170.800 374.928,170.800 374.595 C 170.800 374.262,170.636 373.677,170.435 373.295 C 170.234 372.913,169.597 371.610,169.019 370.400 C 167.462 367.139,162.847 359.538,161.976 358.800 C 161.846 358.690,161.001 357.520,160.098 356.200 C 159.195 354.880,158.039 353.320,157.528 352.734 C 156.236 351.249,155.599 350.470,153.994 348.410 C 153.228 347.425,152.372 346.375,152.094 346.075 C 151.816 345.776,151.096 344.871,150.494 344.065 C 149.892 343.259,149.220 342.404,149.000 342.165 C 148.780 341.926,147.520 340.337,146.200 338.634 C 144.880 336.930,143.395 335.056,142.900 334.468 C 142.406 333.881,142.001 333.175,142.000 332.900 C 142.000 332.625,141.862 332.400,141.694 332.400 C 141.526 332.400,140.944 331.680,140.400 330.800 C 139.856 329.920,139.274 329.200,139.106 329.200 C 138.938 329.200,138.800 328.975,138.799 328.700 C 138.799 328.425,138.259 327.570,137.600 326.800 C 136.941 326.030,136.401 325.175,136.401 324.900 C 136.400 324.625,136.220 324.400,136.000 324.400 C 135.780 324.400,135.600 324.055,135.600 323.633 C 135.600 323.212,135.447 322.807,135.260 322.733 C 133.886 322.195,129.558 310.457,128.581 304.622 C 127.907 300.591,127.160 298.800,126.154 298.800 C 125.849 298.800,125.600 298.620,125.600 298.400 C 125.600 298.180,124.870 298.000,123.978 298.000 C 121.161 298.000,119.200 300.731,119.200 304.654 C 119.200 306.365,118.603 309.441,117.967 311.000 C 117.788 311.440,117.584 312.160,117.515 312.600 C 117.439 313.084,117.080 313.400,116.606 313.400 C 116.176 313.400,115.631 313.040,115.396 312.600 C 115.161 312.160,114.302 310.540,113.488 309.000 C 111.675 305.570,110.150 302.944,109.153 301.538 C 108.739 300.954,108.400 300.294,108.400 300.072 C 108.400 299.849,108.253 299.607,108.072 299.533 C 107.892 299.460,106.956 298.230,105.992 296.800 C 105.028 295.370,103.915 293.851,103.519 293.425 C 103.124 292.998,102.800 292.506,102.800 292.331 C 102.800 292.157,102.356 291.516,101.813 290.907 C 99.175 287.947,97.200 285.173,97.200 284.428 C 97.200 283.069,110.168 277.200,113.171 277.200 C 113.627 277.200,114.000 277.020,114.000 276.800 C 114.000 276.580,114.709 276.400,115.576 276.400 C 116.443 276.400,117.264 276.220,117.400 276.000 C 117.536 275.780,118.346 275.600,119.200 275.600 C 120.054 275.600,120.864 275.420,121.000 275.200 C 121.136 274.980,122.452 274.797,123.924 274.794 C 125.396 274.791,126.870 274.613,127.200 274.400 C 128.391 273.630,141.994 273.901,142.249 274.700 M203.017 296.452 C 205.281 298.613,207.693 300.400,208.345 300.400 C 208.559 300.400,208.793 300.535,208.867 300.700 C 208.940 300.865,209.900 301.425,211.000 301.944 C 212.100 302.463,213.313 303.048,213.695 303.244 C 214.077 303.440,214.741 303.600,215.171 303.600 C 215.601 303.600,216.064 303.780,216.200 304.000 C 216.336 304.220,217.326 304.400,218.400 304.400 C 219.474 304.400,220.464 304.580,220.600 304.800 C 220.736 305.020,221.467 305.200,222.224 305.200 C 223.812 305.200,223.933 305.649,222.834 307.451 C 221.798 309.150,216.452 314.400,215.758 314.400 C 215.451 314.400,215.200 314.550,215.200 314.733 C 215.200 315.138,210.510 317.600,209.738 317.600 C 209.436 317.600,208.877 317.758,208.495 317.951 C 206.596 318.910,204.399 319.244,200.000 319.244 C 195.601 319.244,193.404 318.910,191.505 317.951 C 191.123 317.758,190.564 317.600,190.262 317.600 C 189.490 317.600,184.800 315.138,184.800 314.733 C 184.800 314.550,184.563 314.400,184.274 314.400 C 183.371 314.400,178.199 309.122,176.900 306.876 C 176.121 305.528,176.292 305.200,177.776 305.200 C 178.533 305.200,179.264 305.020,179.400 304.800 C 179.536 304.580,180.526 304.400,181.600 304.400 C 182.674 304.400,183.664 304.220,183.800 304.000 C 183.936 303.780,184.399 303.600,184.829 303.600 C 185.259 303.600,185.923 303.440,186.305 303.244 C 186.687 303.048,187.900 302.463,189.000 301.944 C 190.100 301.425,191.060 300.865,191.133 300.700 C 191.207 300.535,191.444 300.400,191.661 300.400 C 192.309 300.400,195.274 298.174,197.200 296.242 C 199.567 293.868,200.339 293.896,203.017 296.452 " stroke="none" fill="#000000" fill-rule="evenodd"></path><path id="path1" d="" stroke="none" fill="#080404" fill-rule="evenodd"></path></g></svg>